<?xml version="1.0" standalone="no"?>
<!DOCTYPE svg PUBLIC "-//W3C//DTD SVG 1.1//EN" "http://www.w3.org/Graphics/SVG/1.1/DTD/svg11.dtd" >
<svg xmlns="http://www.w3.org/2000/svg" xmlns:xlink="http://www.w3.org/1999/xlink" version="1.1">
<metadata></metadata>
<defs>
<font id="lexendregular" horiz-adv-x="1269" >
<font-face units-per-em="2048" ascent="1638" descent="-410" />
<missing-glyph horiz-adv-x="573" />
<glyph unicode="&#xfb01;" horiz-adv-x="1265" d="M82 918v143h190v174q0 119 78 196.5t207 77.5q66 0 119 -23.5t88 -64.5l-55 -121q-33 33 -70 48.5t-72 15.5q-137 0 -137 -131v-172h272v-143h-272v-918h-158v918h-190zM905 1413q0 51 30.5 82t88.5 31q55 0 86 -30t31 -83q0 -51 -31 -82t-86 -31q-57 0 -88 30t-31 83z M946 0v1071h158v-1071h-158z" />
<glyph unicode="&#xfb02;" horiz-adv-x="1236" d="M82 918v143h190v174q0 119 78 196.5t207 77.5q66 0 119 -23.5t88 -64.5l-55 -121q-33 33 -70 48.5t-72 15.5q-137 0 -137 -131v-172h272v-143h-272v-918h-158v918h-190zM930 0v1516h155v-1516h-155z" />
<glyph horiz-adv-x="0" />
<glyph horiz-adv-x="682" />
<glyph unicode="&#xd;" horiz-adv-x="567" />
<glyph unicode=" "  horiz-adv-x="573" />
<glyph unicode="&#x09;" horiz-adv-x="573" />
<glyph unicode="&#xa0;" horiz-adv-x="573" />
<glyph unicode="!" horiz-adv-x="495" d="M129 106q0 55 32 92.5t83 37.5q117 0 116 -130q0 -55 -31.5 -90.5t-84.5 -35.5q-115 0 -115 126zM166 1290v144h168v-144q0 -127 -4 -266t-13.5 -275.5t-23.5 -254.5h-86q-23 193 -32 404.5t-9 391.5z" />
<glyph unicode="&#x22;" horiz-adv-x="813" d="M90 905l57 529h193l-152 -529h-98zM485 905l58 529h190l-149 -529h-99z" />
<glyph unicode="#" horiz-adv-x="1394" d="M72 383v131h243l74 428h-239v131h262l61 361h143l-61 -361h408l63 361h141l-61 -361h219v-131h-242l-71 -428h237v-131h-260l-65 -383h-144l64 383h-408l-63 -383h-146l66 383h-221zM459 514h409l72 428h-408z" />
<glyph unicode="$" horiz-adv-x="1247" d="M106 236l113 122q74 -94 150.5 -148t173.5 -71v523q-182 49 -274.5 144t-92.5 251q0 106 53.5 189t146.5 136.5t212 63.5v156h149v-158q131 -16 225.5 -76.5t153.5 -150.5l-115 -115q-49 72 -114.5 120t-149.5 66v-500q188 -51 294 -144t106 -241q0 -117 -55.5 -208 t-156 -146t-233.5 -67v-168h-149v172q-137 16 -249 80.5t-188 169.5zM340 1061q0 -86 56.5 -139.5t191.5 -92.5v465q-111 -12 -179.5 -76.5t-68.5 -156.5zM692 133q121 12 201 78t80 162q0 98 -69.5 155.5t-211.5 96.5v-492z" />
<glyph unicode="%" horiz-adv-x="1728" d="M88 1061q0 113 40 202t110.5 139t164.5 50q92 0 163 -50t111 -139t40 -202q0 -109 -42 -197t-113 -139t-161 -51q-94 0 -164.5 50t-109.5 137t-39 200zM223 1061q0 -121 47 -191.5t133 -70.5q82 0 129.5 68.5t47.5 193.5t-47.5 195.5t-131.5 70.5t-131 -72.5t-47 -193.5z M295 0l950 1434h166l-956 -1434h-160zM993 369q0 113 40 201.5t112 139t164 50.5t162.5 -50.5t110.5 -139.5t40 -201q0 -109 -41 -197t-111.5 -139t-160.5 -51q-92 0 -164 50t-112 138t-40 199zM1128 369q0 -121 47.5 -193t133.5 -72q84 0 131 71t47 194t-47 194.5 t-131 71.5t-132.5 -71.5t-48.5 -194.5z" />
<glyph unicode="&#x26;" horiz-adv-x="1472" d="M102 440q0 145 78 259t230 180q-66 109 -66 202q0 106 54.5 189.5t149.5 131.5t218 48q141 0 249.5 -73.5t147.5 -190.5l-123 -78q-41 104 -108.5 149.5t-163.5 45.5q-121 0 -187.5 -55.5t-66.5 -160.5q0 -66 41 -136t97.5 -135.5t99.5 -113.5l311 -344q82 131 108 316 h152q-35 -252 -160 -426l230 -248h-211l-125 131q-84 -72 -189.5 -111.5t-230.5 -39.5q-154 0 -274.5 60t-190.5 164.5t-70 235.5zM268 461q0 -96 51.5 -172t140.5 -119t206 -43q86 0 160.5 28.5t134.5 82.5l-357 393q-31 35 -58.5 67.5t-51.5 61.5q-226 -82 -226 -299z" />
<glyph unicode="'" horiz-adv-x="407" d="M90 905l57 529h193l-152 -529h-98z" />
<glyph unicode="(" horiz-adv-x="733" d="M61 528q0 285 132.5 519.5t381.5 390.5l87 -97q-221 -154 -335 -361.5t-114 -451.5q0 -242 113.5 -449.5t335.5 -361.5l-89 -98q-250 156 -381 389.5t-131 519.5z" />
<glyph unicode=")" horiz-adv-x="745" d="M84 -283q221 154 336 362t115 449q0 244 -115 452t-336 361l88 97q250 -156 381 -389.5t131 -520.5q0 -285 -132 -519t-382 -390z" />
<glyph unicode="*" horiz-adv-x="802" d="M78 1214l61 107l217 -141l-14 254h125l-16 -254l215 139l61 -107l-227 -112l225 -109l-61 -106l-213 137l16 -252h-125l16 254l-217 -141l-61 106l229 113z" />
<glyph unicode="+" horiz-adv-x="1210" d="M102 510v141h422v424h160v-424h424v-141h-424v-424h-160v424h-422z" />
<glyph unicode="," horiz-adv-x="512" d="M113 -264q66 39 103.5 85t37.5 87q0 20 -8 40.5t-43 53.5q-55 49 -56 102q0 41 29 67t76 26q72 0 115 -54.5t43 -144.5q0 -109 -63.5 -196t-176.5 -140z" />
<glyph unicode="-" horiz-adv-x="806" d="M115 494v155h579v-155h-579z" />
<glyph unicode="." horiz-adv-x="466" d="M119 106q0 55 31.5 92.5t82.5 37.5q117 0 117 -130q0 -55 -32 -90.5t-85 -35.5q-115 0 -114 126z" />
<glyph unicode="/" horiz-adv-x="1146" d="M76 -244l831 1678h156l-830 -1678h-157z" />
<glyph unicode="0" horiz-adv-x="1253" d="M98 717q0 348 139.5 542.5t389.5 194.5q248 0 388 -194.5t140 -542.5q0 -346 -140 -541.5t-388 -195.5q-250 0 -389.5 195.5t-139.5 541.5zM260 717q0 -281 95.5 -433.5t271.5 -152.5q174 0 270 152.5t96 433.5t-96 433.5t-270 152.5q-176 0 -271.5 -153t-95.5 -433z" />
<glyph unicode="1" horiz-adv-x="942" d="M172 1247l354 207h62v-1296h217v-158h-590v158h211v1067l-209 -125z" />
<glyph unicode="2" horiz-adv-x="1122" d="M104 1075q53 186 185.5 282.5t306.5 96.5q117 0 211 -48t149.5 -135t55.5 -200q0 -125 -70 -248t-197 -264l-362 -403h674v-156h-867l-49 121l482 541q45 51 96 119.5t88 142t37 141.5q0 111 -74 173t-192 62q-102 0 -202 -72.5t-143 -230.5z" />
<glyph unicode="3" horiz-adv-x="1083" d="M41 283l133 84q82 -133 171 -185.5t192 -52.5q86 0 157.5 42t113.5 113.5t42 161.5q0 137 -84 223.5t-217 86.5q-51 0 -111.5 -18.5t-136.5 -71.5l-49 129l448 487h-559v152h774l41 -82l-415 -445h22q125 0 226.5 -60.5t162 -162.5t60.5 -229q0 -135 -65.5 -243 t-175.5 -170t-247 -62q-154 0 -269.5 68.5t-213.5 234.5z" />
<glyph unicode="4" d="M78 543l729 891h127v-891h250v-154h-250v-389h-158v389h-620zM260 543h516v628z" />
<glyph unicode="5" horiz-adv-x="1163" d="M80 236l96 106q88 -115 174 -159t178 -44q98 0 178 45t127.5 123t47.5 172q0 92 -42 167t-117 118t-169 43q-143 0 -322 -102l-92 120l84 609h774v-150h-643l-59 -393q57 29 133 48t150 19q131 0 235.5 -60t165.5 -165.5t61 -243.5q0 -143 -67.5 -256.5t-184.5 -180 t-262 -66.5q-141 0 -255.5 64.5t-190.5 185.5z" />
<glyph unicode="6" horiz-adv-x="1173" d="M102 500q0 102 56.5 256.5t165.5 337.5l208 352h158l8 -21l-231 -387q-41 -70 -78 -141q109 72 240 72q123 0 224 -64.5t162.5 -172t61.5 -236.5q0 -145 -64.5 -259t-173 -180.5t-241.5 -66.5q-143 0 -255 65.5t-176.5 180t-64.5 264.5zM264 481q0 -96 42 -173t117 -121 t169 -44q92 0 164.5 44t115.5 120t43 174q0 90 -43 166t-115.5 122t-162.5 46q-96 0 -170 -45t-117 -121t-43 -168z" />
<glyph unicode="7" horiz-adv-x="1058" d="M82 1284v150h866l27 -125l-580 -1309h-176l580 1284h-717z" />
<glyph unicode="8" horiz-adv-x="1187" d="M111 412q-2 113 60 204t177 150q-90 41 -141 119t-51 170q0 104 58 190t157.5 137.5t222.5 51.5q121 0 220 -51.5t158.5 -137.5t59.5 -190q0 -94 -52 -171t-151 -120q113 -53 180.5 -150.5t67.5 -201.5q0 -117 -64.5 -212.5t-174 -150.5t-244.5 -55t-244.5 56t-174 150.5 t-64.5 211.5zM274 416q0 -74 42 -135.5t114 -97.5t164 -36t163.5 36t113.5 96.5t42 136.5q0 78 -42 138t-113.5 95t-163.5 35t-164 -35t-114 -95t-42 -138zM319 1051q0 -98 78 -163t197 -65q117 0 195.5 63.5t78.5 164.5q0 96 -78.5 162.5t-195.5 66.5q-119 0 -197 -66.5 t-78 -162.5z" />
<glyph unicode="9" horiz-adv-x="1126" d="M72 961q0 141 65.5 253.5t177 177t250.5 64.5q135 0 245 -64.5t175.5 -172t65.5 -240.5q0 -123 -60.5 -280.5t-146.5 -342.5l-170 -356h-156l-8 20l278 580q-123 -102 -270 -102q-123 0 -224 62.5t-161.5 168t-60.5 232.5zM240 977q0 -88 42 -163t112.5 -119t158.5 -44 q92 0 165 43t116 117t43 164q0 92 -42 167t-115 119t-165 44q-90 0 -161.5 -43t-112.5 -117t-41 -168z" />
<glyph unicode=":" horiz-adv-x="507" d="M139 108q0 55 31.5 92.5t82.5 37.5q117 0 117 -130q0 -55 -32 -90.5t-85 -35.5q-115 0 -114 126zM139 964q0 55 31.5 92.5t82.5 37.5q117 0 117 -130q0 -55 -32 -90.5t-85 -35.5q-115 0 -114 126z" />
<glyph unicode=";" horiz-adv-x="499" d="M86 -264q66 39 103.5 85t37.5 87q0 20 -8 40.5t-43 53.5q-55 49 -56 102q0 41 29 67t76 26q72 0 115 -54.5t43 -144.5q0 -109 -63.5 -196t-176.5 -140zM125 964q0 55 31.5 92.5t82.5 37.5q117 0 117 -130q0 -55 -32 -90.5t-85 -35.5q-115 0 -114 126z" />
<glyph unicode="&#x3c;" horiz-adv-x="1038" d="M106 449v135l732 420l71 -115l-645 -373l645 -371l-71 -114z" />
<glyph unicode="=" horiz-adv-x="1159" d="M113 324v139h934v-139h-934zM113 688v141h934v-141h-934z" />
<glyph unicode="&#x3e;" horiz-adv-x="1038" d="M129 145l645 371l-645 373l72 115l731 -420v-135l-731 -418z" />
<glyph unicode="?" horiz-adv-x="1034" d="M59 1171q86 131 204 203t247 72q121 0 219 -53.5t155.5 -143.5t57.5 -202q0 -96 -49 -182.5t-135 -152t-197 -102.5l-26 -188h-121l-35 274q201 51 297 138.5t96 212.5q0 109 -78 179t-196 70q-92 0 -176 -56t-150 -165zM356 106q0 55 32 92.5t85 37.5q115 0 115 -130 q0 -55 -32 -90.5t-83 -35.5q-117 -1 -117 126z" />
<glyph unicode="@" horiz-adv-x="1990" d="M92 428q0 229 82 417.5t227.5 325t340 210t417.5 73.5q221 0 388 -83t259 -229.5t92 -338.5q0 -145 -39.5 -271t-110.5 -220.5t-163 -146.5t-194 -52q-96 0 -149.5 51t-53.5 137v6q-59 -94 -147.5 -144t-190.5 -50q-92 0 -164 46t-113 129t-41 193q0 102 35 202.5 t98.5 182.5t151.5 130t195 48q88 0 157.5 -46t108.5 -136l25 164h153l-113 -643q-12 -72 13.5 -107.5t77.5 -35.5q86 0 161.5 72.5t122.5 198.5t47 284q0 164 -75.5 283.5t-213 185t-321.5 65.5q-209 0 -379 -67.5t-293 -187.5t-189.5 -282.5t-66.5 -353.5q0 -197 77 -341 t218.5 -223t337.5 -79q139 0 243.5 36t211.5 95l61 -108q-147 -82 -273 -116t-247 -34q-233 0 -405 95.5t-265.5 266.5t-93.5 398zM688 475q0 -104 52.5 -166.5t142.5 -62.5q82 0 154.5 46t123.5 124t68 172q6 31 9 53.5t3 44.5q0 102 -60.5 163.5t-160.5 61.5 q-86 0 -162 -59t-123 -158.5t-47 -218.5z" />
<glyph unicode="A" horiz-adv-x="1380" d="M51 0l551 1434h182l545 -1434h-176l-147 395h-639l-150 -395h-166zM426 553h520l-141 375q-25 66 -58.5 163t-60.5 179q-29 -88 -59.5 -178t-61.5 -174z" />
<glyph unicode="B" horiz-adv-x="1374" d="M211 0v1434h582q188 0 296.5 -96.5t108.5 -264.5q0 -102 -50 -180t-140 -119q121 -41 193.5 -133t72.5 -219q0 -195 -125 -308.5t-336 -113.5h-602zM373 158h428q137 0 221 69.5t84 188.5q0 113 -88 179.5t-227 66.5h-418v-504zM373 819h407q111 0 182.5 64.5t71.5 163.5 q0 104 -70.5 166.5t-197.5 62.5h-393v-457z" />
<glyph unicode="C" horiz-adv-x="1386" d="M100 717q0 156 53.5 289t148.5 231t223 153.5t278 55.5q100 0 198.5 -33t181.5 -88t136 -127l-111 -117q-78 94 -186.5 148.5t-218.5 54.5q-154 0 -274.5 -73.5t-190.5 -201.5t-70 -292q0 -170 71 -300t195.5 -202t288.5 -72q113 0 218.5 46.5t168.5 121.5l82 -135 q-49 -57 -128 -101t-172 -69.5t-187 -25.5q-205 0 -364.5 94t-250 261t-90.5 382z" />
<glyph unicode="D" horiz-adv-x="1523" d="M211 0v1434h543q195 0 345 -91.5t237 -253t87 -372.5t-87 -373t-237.5 -253t-344.5 -91h-543zM373 158h370q150 0 265.5 69.5t181 195.5t65.5 294t-65.5 294t-181 195.5t-265.5 69.5h-370v-1118z" />
<glyph unicode="E" horiz-adv-x="1228" d="M211 0v1434h868v-158h-706v-459h592v-158h-592v-501h702v-158h-864z" />
<glyph unicode="F" horiz-adv-x="1216" d="M211 0v1434h903v-158h-741v-479h645v-158h-645v-639h-162z" />
<glyph unicode="G" horiz-adv-x="1564" d="M100 715q0 156 55.5 289t156 232t234.5 154.5t290 55.5q109 0 213 -32t190 -86t139 -126l-106 -110q-86 90 -203 142t-231 52q-162 0 -291 -74.5t-204 -203.5t-75 -293t78 -294t210 -206t296 -76q129 0 233.5 50.5t166 136.5t61.5 192v29h-469v162h631q2 -27 5 -61t3 -62 q0 -178 -85 -314.5t-229.5 -214t-322.5 -77.5q-158 0 -294 55t-237.5 154.5t-158 232.5t-56.5 293z" />
<glyph unicode="H" horiz-adv-x="1542" d="M211 0v1434h162v-639h796v639h162v-1434h-162v637h-796v-637h-162z" />
<glyph unicode="I" horiz-adv-x="911" d="M143 0v154h232v1126h-232v154h625v-154h-231v-1126h231v-154h-625z" />
<glyph unicode="J" horiz-adv-x="1296" d="M121 240l106 112q78 -123 152 -168t160 -45q127 0 205.5 87t78.5 225v829h-262v154h639v-154h-211v-844q0 -131 -58.5 -234.5t-159.5 -162.5t-232 -59q-137 0 -246 69.5t-172 190.5z" />
<glyph unicode="K" horiz-adv-x="1435" d="M211 0v1434h162v-756l764 756h217l-615 -598l635 -836h-203l-546 725l-252 -248v-477h-162z" />
<glyph unicode="L" horiz-adv-x="1163" d="M211 0v1434h162v-1276h688v-158h-850z" />
<glyph unicode="M" horiz-adv-x="1757" d="M211 0v1434h158l512 -834l520 834h145v-1434h-162v653q0 145 4.5 266t12.5 236l-471 -739h-111l-463 739q10 -109 13.5 -228.5t3.5 -273.5v-653h-162z" />
<glyph unicode="N" horiz-adv-x="1611" d="M211 0v1434h147l899 -1190q-4 61 -8 146t-6 177t-3 181.5t-1 160.5v525h162v-1434h-150l-901 1180q8 -123 13.5 -233.5t7.5 -189.5t2 -106v-651h-162z" />
<glyph unicode="O" horiz-adv-x="1607" d="M100 715q0 158 52.5 292t146.5 233t223 154.5t281 55.5t280.5 -55.5t224 -154.5t147.5 -233.5t52 -291.5q0 -160 -52 -294t-147.5 -233.5t-224 -153.5t-280.5 -54t-281 54t-223 153.5t-146.5 233.5t-52.5 294zM268 715q0 -168 69 -298t189.5 -204t276.5 -74t276.5 74 t190 204t69.5 298q0 166 -69.5 296t-190.5 204.5t-276 74.5q-156 0 -276.5 -74.5t-189.5 -204.5t-69 -296z" />
<glyph unicode="P" horiz-adv-x="1275" d="M211 0v1434h567q113 0 203 -56.5t143.5 -153t53.5 -216.5q0 -127 -53.5 -227.5t-143.5 -158t-203 -57.5h-405v-565h-162zM373 723h413q63 0 113.5 37t81.5 102.5t31 147.5q0 113 -65.5 189.5t-160.5 76.5h-413v-553z" />
<glyph unicode="Q" horiz-adv-x="1607" d="M100 715q0 158 52.5 292t146.5 233t223 154.5t281 55.5t280.5 -55.5t224 -154.5t147.5 -233.5t52 -291.5q0 -184 -70.5 -336t-193.5 -250l189 -246l-129 -94l-195 256q-141 -65 -305 -65q-152 0 -281 54t-223 153.5t-146.5 233.5t-52.5 294zM268 715q0 -168 69 -298 t189.5 -204t276.5 -74q109 0 205 37l-230 303l131 88l234 -309q92 78 144 195.5t52 261.5q0 166 -69.5 296t-190.5 204.5t-276 74.5q-156 0 -276.5 -74.5t-189.5 -204.5t-69 -296z" />
<glyph unicode="R" horiz-adv-x="1353" d="M211 0v1434h563q125 0 226.5 -58.5t161 -159t59.5 -227.5q0 -141 -80 -248.5t-207 -150.5l344 -590h-195l-321 565h-389v-565h-162zM373 723h428q111 0 182.5 74.5t71.5 191.5q0 125 -85 206t-216 81h-381v-553z" />
<glyph unicode="S" horiz-adv-x="1247" d="M106 254l113 125q96 -137 197.5 -192.5t226.5 -55.5q94 0 169 31t118 85t43 126q0 117 -97.5 176t-271.5 100q-209 49 -318.5 142.5t-109.5 267.5q0 113 62.5 201t169 139t239.5 51q166 0 280.5 -67.5t188.5 -186.5l-115 -115q-66 102 -153.5 159.5t-204.5 57.5 q-133 0 -218 -66.5t-85 -170.5q0 -102 78 -159.5t256 -96.5q213 -49 338 -143.5t125 -258.5q0 -125 -63.5 -221t-177 -149t-265.5 -53q-336 0 -525 274z" />
<glyph unicode="T" horiz-adv-x="1120" d="M61 1276v158h998v-158h-424v-1276h-162v1276h-412z" />
<glyph unicode="U" horiz-adv-x="1529" d="M201 551v885h161v-867q0 -123 53.5 -218t143.5 -150.5t203 -55.5q117 0 210 55.5t147.5 150.5t54.5 218v867h155v-885q0 -164 -73.5 -291t-201.5 -199.5t-292 -72.5q-162 0 -289 72.5t-199.5 199.5t-72.5 291z" />
<glyph unicode="V" horiz-adv-x="1394" d="M51 1434h182l357 -930q37 -98 61.5 -167t48.5 -138q23 74 47.5 143.5t61.5 167.5l352 924h185l-572 -1434h-168z" />
<glyph unicode="W" horiz-adv-x="1959" d="M51 1434h174l277 -945q23 -76 38 -139t27 -125q18 63 32.5 107.5t28 81.5t31.5 84l242 610h152l245 -619q29 -70 50.5 -130t42.5 -130q10 49 16 81t17.5 72t33.5 118l277 934h174l-436 -1434h-134l-368 874l-355 -874h-131z" />
<glyph unicode="X" horiz-adv-x="1339" d="M51 0l514 735l-504 699h203l414 -590l401 590h189l-500 -717l520 -717h-203l-428 604l-417 -604h-189z" />
<glyph unicode="Y" horiz-adv-x="1323" d="M37 1434h196l451 -646l416 646h186l-524 -795v-639h-160v635z" />
<glyph unicode="Z" horiz-adv-x="1327" d="M123 0v125l854 1151h-801v158h1018v-121l-850 -1155h873v-158h-1094z" />
<glyph unicode="[" horiz-adv-x="768" d="M174 -389v1823h496v-129h-351v-1565h351v-129h-496z" />
<glyph unicode="\" horiz-adv-x="1116" d="M90 1434h156l819 -1653h-160z" />
<glyph unicode="]" horiz-adv-x="768" d="M98 -260h353v1565h-353v129h496v-1823h-496v129z" />
<glyph unicode="^" horiz-adv-x="1196" d="M78 754l434 735h172l436 -735h-174l-348 587l-350 -587h-170z" />
<glyph unicode="_" horiz-adv-x="1417" d="M111 -168h1196v-129h-1196v129z" />
<glyph unicode="`" horiz-adv-x="1024" d="M317 1434l101 129l291 -246l-56 -84z" />
<glyph unicode="a" d="M72 537q0 162 67.5 287.5t182 197.5t256.5 72q129 0 230 -59.5t155 -153.5l4 190h155v-1071h-157v190q-57 -90 -164 -150t-234 -60q-139 0 -251.5 72.5t-178 198.5t-65.5 286zM233 539q0 -119 47.5 -212.5t130 -145.5t191.5 -52q106 0 190.5 52t132.5 144.5t48 213.5 q0 117 -48 209t-132 144t-191 52q-109 0 -191.5 -52t-130 -144.5t-47.5 -208.5z" />
<glyph unicode="b" horiz-adv-x="1267" d="M150 4v1512h155v-633q51 88 156.5 149.5t228.5 61.5q141 0 256 -72t181.5 -198t66.5 -287q0 -160 -65.5 -286t-179.5 -198.5t-257 -72.5q-121 0 -225.5 57t-159.5 141l-4 -174h-153zM297 539q0 -121 48 -213.5t132.5 -145.5t190.5 -53q109 0 192.5 53t130.5 146.5 t47 212.5q0 117 -47 209t-131 145t-192 53q-109 0 -193 -53t-131 -145.5t-47 -208.5z" />
<glyph unicode="c" horiz-adv-x="1079" d="M74 537q0 160 68.5 285.5t188.5 198.5t273 73q135 0 248 -55.5t180 -151.5l-90 -111q-59 76 -149.5 123t-182.5 47q-111 0 -196.5 -53t-135 -145.5t-49.5 -210.5q0 -117 50.5 -210.5t136.5 -146.5t192 -53q188 0 330 168l92 -113q-72 -92 -187.5 -147t-242.5 -55 q-152 0 -270.5 72.5t-187 198.5t-68.5 286z" />
<glyph unicode="d" horiz-adv-x="1273" d="M74 537q0 160 67.5 285.5t182 198.5t258.5 73q123 0 226 -56.5t161 -138.5v617h155v-1516h-153l-4 180q-51 -84 -155.5 -142t-225.5 -58q-147 0 -263 71.5t-182.5 197.5t-66.5 288zM236 537q0 -119 47 -213.5t130.5 -147.5t192.5 -53q106 0 190.5 53t132.5 146.5 t48 214.5t-48 214t-132 146t-191 53q-109 0 -192.5 -53t-130.5 -146.5t-47 -213.5z" />
<glyph unicode="e" horiz-adv-x="1153" d="M74 530q0 164 67.5 291t188.5 200t276 73q143 0 253 -66.5t169 -182.5q55 -109 55 -248v-19l-2 -72h-848q10 -174 119 -276.5t289 -102.5q78 0 152.5 25.5t164.5 101.5l80 -113q-72 -70 -182 -115.5t-233 -45.5q-162 0 -286 69.5t-193.5 194.5t-69.5 286zM240 637h686v12 q-4 74 -43 142.5t-110 111.5t-169 43q-147 0 -243.5 -79t-120.5 -230z" />
<glyph unicode="f" horiz-adv-x="776" d="M82 918v143h190v174q0 119 78 196.5t207 77.5q66 0 119 -23.5t88 -64.5l-55 -121q-33 33 -70 48.5t-72 15.5q-137 0 -137 -131v-172h272v-143h-272v-918h-158v918h-190z" />
<glyph unicode="g" horiz-adv-x="1290" d="M74 537q0 160 68.5 285.5t186 198.5t263.5 73q123 0 228.5 -59.5t160.5 -143.5l4 180h156v-1005q0 -256 -145.5 -396.5t-385.5 -140.5q-119 0 -224 37t-177 92l63 131q61 -49 150.5 -82t191.5 -33q174 0 272.5 97.5t98.5 287.5v142q-49 -92 -156.5 -156.5t-234.5 -64.5 q-150 0 -267.5 71.5t-185 197.5t-67.5 288zM236 537q0 -117 48 -210.5t132.5 -145.5t195.5 -52q109 0 194 52t134 144.5t49 211.5t-49 211t-134 145t-194 53q-111 0 -195.5 -53t-132.5 -145.5t-48 -210.5z" />
<glyph unicode="h" horiz-adv-x="1181" d="M150 0v1516h155v-635q53 94 155.5 153.5t211.5 59.5q184 0 275 -110t91 -333v-651h-157v641q0 307 -248 307h-6q-92 0 -165 -41t-115 -108.5t-42 -147.5v-651h-155z" />
<glyph unicode="i" horiz-adv-x="489" d="M129 1413q0 51 30.5 82t88.5 31q55 0 86 -30t31 -83q0 -51 -31 -82t-86 -31q-57 0 -88 30t-31 83zM170 0v1071h158v-1071h-158z" />
<glyph unicode="j" horiz-adv-x="485" d="M-61 -276q125 0 181 62t56 187v1098h156v-1145q0 -147 -91 -237t-241 -90zM137 1413q0 51 31 82t88 31q55 0 86 -30t31 -83q0 -51 -31 -82t-86 -31q-57 0 -88 30t-31 83z" />
<glyph unicode="k" horiz-adv-x="1107" d="M154 0v1516h155v-971l535 526h211l-488 -465l523 -606h-203l-430 500l-148 -140v-360h-155z" />
<glyph unicode="l" horiz-adv-x="462" d="M154 0v1516h155v-1516h-155z" />
<glyph unicode="m" horiz-adv-x="1865" d="M147 0v1071h156l2 -184q53 92 151.5 148.5t213.5 56.5t195.5 -53.5t121.5 -182.5q31 63 90.5 116.5t136 86.5t162.5 33q170 0 259 -110t89 -337v-645h-157v637q0 158 -59.5 232.5t-178.5 74.5q-92 0 -163.5 -41t-111.5 -108.5t-40 -147.5v-647h-158v639q0 305 -238 305 q-90 0 -161.5 -40t-111.5 -107.5t-40 -147.5v-649h-158z" />
<glyph unicode="n" horiz-adv-x="1181" d="M150 0v1071h153l4 -182q49 86 152.5 145.5t218.5 59.5q178 0 269 -110t91 -333v-651h-157v641q0 307 -243 307h-9q-94 0 -167 -41t-115 -108.5t-42 -147.5v-651h-155z" />
<glyph unicode="o" horiz-adv-x="1243" d="M74 539q0 160 71.5 285.5t195.5 197.5t282 72t281.5 -72t194 -198t70.5 -285q0 -162 -70.5 -288t-194 -198.5t-281.5 -72.5t-282 72.5t-195.5 198.5t-71.5 288zM236 539q0 -119 49 -212.5t137 -146.5t201 -53t199.5 53t136 146.5t49.5 212.5t-49.5 210t-136.5 144 t-199 53q-113 0 -201 -53t-137 -145.5t-49 -208.5z" />
<glyph unicode="p" horiz-adv-x="1273" d="M150 -451v1522h155l2 -194q51 90 157.5 152.5t229.5 62.5q143 0 258 -72t181.5 -198t66.5 -285q0 -160 -65.5 -286t-179 -197.5t-257.5 -71.5q-125 0 -231.5 59t-159.5 147v-639h-157zM297 537q0 -119 49 -211.5t133 -144.5t193 -52t192.5 53.5t131.5 145.5t48 209 t-48 209t-132 144t-192 52q-109 0 -194 -52t-133 -143.5t-48 -209.5z" />
<glyph unicode="q" d="M74 537q0 160 66.5 285.5t181 198.5t258.5 73q119 0 222 -56.5t159 -138.5l4 172h157v-1522h-157v639q-51 -88 -157 -148t-226 -60q-145 0 -260 71.5t-181.5 197.5t-66.5 288zM229 537q0 -117 47.5 -210.5t131 -145.5t192.5 -52q106 0 191.5 52t133.5 144.5t48 211.5 t-48 211t-132 145t-193 53t-192.5 -53t-131 -145.5t-47.5 -210.5z" />
<glyph unicode="r" horiz-adv-x="765" d="M150 0v1071h155l2 -207q43 96 131 163t201 67q35 0 65.5 -6.5t51.5 -12.5l-43 -174q-53 23 -107 23q-92 0 -159.5 -44t-103.5 -116t-36 -158v-606h-157z" />
<glyph unicode="s" horiz-adv-x="980" d="M82 166l111 96q117 -145 321 -145q98 0 160.5 44t62.5 122q0 66 -57 108q-27 20 -76 39t-119 39q-115 31 -190.5 65.5t-118.5 79.5q-61 70 -61 174q0 88 48 157t133 109t191 40q115 0 222.5 -48.5t175.5 -123.5l-97 -105q-61 63 -135.5 102t-156.5 39q-100 0 -161 -45 t-61 -118q0 -59 48 -99q29 -23 81 -42t129 -40q88 -25 152 -50t104 -60q102 -78 103 -213q0 -90 -51.5 -161t-139 -110.5t-198.5 -39.5q-139 0 -247 50t-173 136z" />
<glyph unicode="t" horiz-adv-x="761" d="M57 922v149h240v279h156v-279h268v-149h-268v-922h-156v922h-240z" />
<glyph unicode="u" horiz-adv-x="1193" d="M147 416v655h158v-625q0 -325 266 -325h2q88 0 160 40t114 108.5t42 152.5v649h155v-1071h-153l-6 184q-49 -88 -147.5 -146t-209.5 -58q-184 0 -282.5 111.5t-98.5 324.5z" />
<glyph unicode="v" horiz-adv-x="1103" d="M31 1071h174l338 -838l364 838h166l-479 -1071h-111z" />
<glyph unicode="w" horiz-adv-x="1581" d="M31 1071h166l264 -799l284 633h95l280 -622l266 788h164l-370 -1071h-93l-299 686l-290 -686h-95z" />
<glyph unicode="x" horiz-adv-x="1103" d="M35 0l420 541l-412 530h197l321 -416l295 416h188l-395 -528l422 -543h-194l-332 426l-322 -426h-188z" />
<glyph unicode="y" horiz-adv-x="1128" d="M14 1071h176l367 -819q8 -18 16.5 -40t16.5 -44q6 16 13 33.5t13 36.5l320 833h178l-432 -1071l-184 -471h-168l182 442z" />
<glyph unicode="z" horiz-adv-x="952" d="M90 0v135l565 795h-565v141h754v-133l-568 -797h590v-141h-776z" />
<glyph unicode="{" horiz-adv-x="835" d="M96 453v120h82q104 0 158.5 71t54.5 200l-2 194q0 164 89 255t274 132l28 -108q-94 -33 -148 -69t-77 -91t-23 -147l5 -195q0 -119 -50.5 -196.5t-144.5 -106.5q195 -72 195 -303l-5 -195q0 -90 23 -146t77 -92t148 -67l-28 -110q-184 41 -273.5 130t-89.5 257l2 194 q0 127 -56 199t-161 74h-78z" />
<glyph unicode="|" horiz-adv-x="471" d="M162 -395v1911h147v-1911h-147z" />
<glyph unicode="}" horiz-adv-x="835" d="M55 -291q94 31 148.5 67t77 91t22.5 147l-4 195q0 119 50 196.5t145 106.5q-195 74 -195 303l4 195q0 90 -22.5 146t-75.5 92t-150 69l29 108q184 -39 273 -129t89 -258l-2 -194q0 -127 56.5 -199t161.5 -72h77v-120h-82q-104 -2 -158.5 -73t-54.5 -200l2 -194 q0 -164 -89 -255t-273 -132z" />
<glyph unicode="~" horiz-adv-x="1044" d="M106 487q0 117 54.5 181.5t156.5 64.5q31 0 76 -12t92 -26.5t82 -26.5q43 -14 95.5 -30.5t85.5 -16.5q35 0 56 27.5t19 70.5l121 -4q0 -111 -52.5 -169.5t-150.5 -58.5q-33 0 -79 11.5t-93 27t-80 25.5q-43 14 -97 31.5t-83 17.5q-39 0 -60.5 -29.5t-21.5 -83.5h-121z " />
<glyph unicode="&#xa1;" horiz-adv-x="495" d="M127 979q0 55 31.5 90.5t84.5 35.5q115 0 115 -126q0 -55 -32 -92.5t-83 -37.5q-117 0 -116 130zM153 -205q0 127 4 266t13.5 275.5t23.5 254.5h86q23 -193 32 -404.5t9 -391.5v-144h-168v144z" />
<glyph unicode="&#xa2;" horiz-adv-x="1097" d="M92 717q0 143 55.5 259t153.5 191.5t227 98.5v168h152v-164q117 -10 214 -63.5t157 -139.5l-90 -111q-53 68 -130 113t-159 55v-815q162 18 284 164l93 -111q-61 -82 -158.5 -135t-210.5 -63v-164h-152v168q-129 20 -227 96t-153.5 192.5t-55.5 260.5zM246 717 q0 -100 39 -183t104.5 -140.5t147.5 -76.5v799q-129 -31 -210 -139t-81 -260z" />
<glyph unicode="&#xa3;" horiz-adv-x="1249" d="M84 119q51 29 110.5 49t122.5 33q29 37 45.5 93t16.5 118q0 53 -10.5 110.5t-42.5 159.5h-226v137h185q-18 66 -24.5 108t-6.5 81q0 131 54 229t153.5 152.5t234.5 54.5q133 0 229.5 -46t145.5 -126l-121 -92q-51 66 -118.5 90t-133.5 24q-129 0 -209.5 -80.5 t-80.5 -207.5q0 -45 9 -93.5t23 -93.5h475v-137h-430q16 -55 31.5 -113.5t15.5 -109.5q0 -66 -15 -127.5t-50 -122.5q43 -2 90 -14.5t127 -38.5q51 -18 100.5 -31.5t102.5 -13.5q51 0 104 18t111 53l88 -110q-129 -102 -303 -103q-55 0 -124 17.5t-122 33.5 q-43 12 -106.5 30t-108.5 18q-61 0 -133 -19.5t-143 -46.5z" />
<glyph unicode="&#xa4;" horiz-adv-x="1136" d="M121 942l108 109l136 -129q92 66 206 65q111 0 201 -61l135 133l109 -109l-137 -135q57 -90 57 -197q0 -102 -51 -188l129 -121l-109 -108l-123 116q-94 -68 -211 -67q-117 0 -209 67l-124 -124l-109 108l129 129q-51 86 -51 188q0 104 53 193zM354 618 q0 -100 60.5 -165.5t156.5 -65.5q98 0 159 65.5t61 165.5t-60.5 167t-159.5 67q-96 0 -156.5 -66.5t-60.5 -167.5z" />
<glyph unicode="&#xa5;" horiz-adv-x="1323" d="M37 1434h196l451 -646l416 646h186l-520 -789h326v-137h-330v-154h330v-137h-330v-217h-160v219h-303v137h303v154h-303v137h293z" />
<glyph unicode="&#xa6;" horiz-adv-x="479" d="M166 406h147v-820h-147v820zM166 698v818h147v-818h-147z" />
<glyph unicode="&#xa7;" horiz-adv-x="1118" d="M131 629q0 88 48 156.5t132 105.5q-43 39 -74.5 97.5t-31.5 139.5q0 135 101.5 227.5t281.5 92.5q115 0 207 -42t166 -114l-87 -108q-59 55 -133.5 88t-160.5 33q-96 0 -159 -46.5t-63 -123.5q0 -125 168 -179l215 -69q131 -43 203 -114t68 -179q-4 -96 -51.5 -161.5 t-126.5 -100.5q53 -39 87.5 -97.5t34.5 -136.5q0 -137 -102.5 -228t-284.5 -91q-125 0 -241.5 47t-194.5 119l76 121q76 -68 170 -108t192 -40q104 0 167 44t63 124q0 61 -44 102t-118 66l-272 90q-111 35 -173.5 104.5t-62.5 180.5zM293 639q0 -47 31.5 -88t111.5 -66 l252 -84q78 20 124 65.5t46 115.5q0 51 -32.5 85.5t-118.5 63.5l-254 82q-68 -18 -114 -61t-46 -113z" />
<glyph unicode="&#xa8;" horiz-adv-x="1024" d="M195 1409q0 51 30.5 82t87.5 31q55 0 86 -30t31 -83q0 -51 -32 -82t-85 -31q-57 0 -87.5 30t-30.5 83zM596 1411q0 49 30.5 81t86.5 32q55 0 86.5 -31t31.5 -82t-31.5 -82t-86.5 -31q-57 0 -87 30t-30 83z" />
<glyph unicode="&#xa9;" horiz-adv-x="1609" d="M74 717q0 154 56 286t156.5 232t232.5 156.5t286 56.5q152 0 284 -56.5t233 -156.5t157.5 -232.5t56.5 -285.5q0 -154 -56.5 -286t-157.5 -232.5t-233 -156.5t-284 -56q-154 0 -286 56t-232.5 156.5t-156.5 232.5t-56 286zM199 717q0 -127 47 -236.5t130 -192.5 t192.5 -130t236.5 -47t236.5 47t192.5 130t130 192.5t47 236.5t-47 237.5t-130 193.5t-192.5 129t-236.5 46t-236.5 -46t-192.5 -129t-130 -193.5t-47 -237.5zM395 717q0 117 58.5 213t158 153.5t222.5 57.5q143 0 264 -92l-60 -115q-45 37 -97 57.5t-107 20.5 q-84 0 -153 -40t-109 -107.5t-40 -147.5q0 -86 40 -152.5t108 -105.5t154 -39q113 0 215 74l57 -115q-125 -88 -272 -88q-123 0 -222.5 55t-158 151.5t-58.5 219.5z" />
<glyph unicode="&#xaa;" horiz-adv-x="747" d="M41 1151q0 141 80 233.5t213 92.5q131 0 194 -107v94h138v-643h-138v103q-35 -51 -89 -87t-122 -36q-129 0 -202.5 96t-73.5 254zM180 1151q0 -113 44 -178.5t124 -65.5q82 0 134.5 62.5t52.5 167.5q0 109 -50.5 171t-138.5 62q-70 0 -118 -64.5t-48 -154.5z" />
<glyph unicode="&#xab;" horiz-adv-x="985" d="M47 528v4l326 431l106 -72l-258 -356l258 -357l-104 -74zM463 528v4l326 431l106 -72l-258 -356l258 -357l-104 -74z" />
<glyph unicode="&#xac;" horiz-adv-x="1372" d="M113 670v147h1147v-577h-156v430h-991z" />
<glyph unicode="&#xad;" horiz-adv-x="806" d="M115 494v155h579v-155h-579z" />
<glyph unicode="&#xae;" horiz-adv-x="1050" d="M55 991q0 129 64.5 235.5t173 169t239.5 62.5q129 0 237 -63.5t172.5 -169t64.5 -234.5t-63.5 -235.5t-171.5 -168t-239 -61.5q-133 0 -241.5 61.5t-172 168t-63.5 235.5zM160 991q0 -100 50 -182t134 -130t188 -48q100 0 184.5 48t134.5 130t50 182t-50 182t-134 131.5 t-185 49.5q-104 0 -188 -49.5t-134 -131t-50 -182.5zM360 752v495h209q74 0 118 -43t44 -110q0 -49 -25.5 -86t-66.5 -56l92 -200h-104l-84 188h-84v-188h-99zM459 1018h80q43 0 70.5 19.5t27.5 49.5q0 72 -94 72h-84v-141z" />
<glyph unicode="&#xaf;" horiz-adv-x="868" d="M227 1323v121h572v-121h-572z" />
<glyph unicode="&#xb0;" horiz-adv-x="1089" d="M225 1133q0 90 42 162.5t114 114.5t164 42t163.5 -42t113.5 -114.5t42 -160.5t-42 -161t-114.5 -115t-162.5 -42t-163 42t-115 113.5t-42 160.5zM350 1133q0 -86 57.5 -146.5t137.5 -60.5q82 0 139 61.5t57 147.5t-58 147t-138 61q-82 0 -138.5 -61t-56.5 -149z" />
<glyph unicode="&#xb1;" horiz-adv-x="1208" d="M113 43v143h983v-143h-983zM113 627v141h413v317h158v-317h412v-141h-412v-310h-158v310h-413z" />
<glyph unicode="&#xb2;" horiz-adv-x="708" d="M96 1417q47 80 119 129t162 49q94 0 154.5 -56t60.5 -140q0 -51 -25.5 -97.5t-61.5 -88.5t-71 -74l-168 -172h346v-111h-475l-22 111l237 247q35 37 74 82t39 95q0 41 -26.5 65.5t-71.5 24.5q-98 0 -185 -127z" />
<glyph unicode="&#xb3;" horiz-adv-x="700" d="M123 913l55 92q45 -29 81 -40t73 -11q72 0 116 36t44 97q0 53 -40 87t-102 34q-57 0 -123 -29l-32 82l235 211h-274v109h409l13 -107l-197 -170h2q102 0 165.5 -58t63.5 -157q0 -106 -76.5 -175.5t-191.5 -69.5q-57 0 -117.5 19t-103.5 50z" />
<glyph unicode="&#xb4;" horiz-adv-x="1024" d="M317 1317l291 246l101 -129l-336 -201z" />
<glyph unicode="&#xb5;" horiz-adv-x="1175" d="M158 -322v1393h149v-635q0 -315 248 -315q90 0 164 43t117 114.5t43 155.5v637h149v-1071h-147l-4 186q-57 -106 -147.5 -156t-186.5 -50q-74 0 -135.5 28.5t-102.5 85.5l2 -416h-149z" />
<glyph unicode="&#xb6;" horiz-adv-x="1359" d="M100 995q0 133 57.5 231.5t161 153t242.5 54.5h588v-1434h-162v1282h-289v-1282h-161v571h-52q-111 0 -197.5 55.5t-137 150.5t-50.5 218z" />
<glyph unicode="&#xb7;" horiz-adv-x="466" d="M119 647q0 55 31.5 92.5t82.5 37.5q117 0 117 -130q0 -55 -32 -90.5t-85 -35.5q-115 0 -114 126z" />
<glyph unicode="&#xb8;" horiz-adv-x="1024" d="M328 -397q55 2 109.5 16t90 40t35.5 56q0 33 -32.5 50.5t-76.5 25.5t-77 8l-27 21l135 211h105l-88 -140q199 -39 198 -172q0 -72 -56 -117.5t-138 -67t-164 -19.5z" />
<glyph unicode="&#xb9;" horiz-adv-x="575" d="M111 1465l215 127h73v-711h-118v553l-117 -70z" />
<glyph unicode="&#xba;" horiz-adv-x="724" d="M51 1124q0 94 40 169t110.5 118t158.5 43t160 -44t113 -118.5t41 -167.5q0 -92 -41 -164.5t-112 -114.5t-161 -42q-88 0 -158.5 42t-110.5 114.5t-40 164.5zM186 1124q0 -92 48 -149t126 -57q80 0 129.5 57t49.5 149q0 96 -49.5 156.5t-129.5 60.5t-127 -60t-47 -157z " />
<glyph unicode="&#xbb;" horiz-adv-x="1011" d="M92 178l256 354l-256 359l104 72l326 -424v-4l-326 -429zM535 178l256 354l-256 359l104 72l326 -424v-4l-326 -429z" />
<glyph unicode="&#xbc;" horiz-adv-x="1601" d="M140 1319l215 127h73v-711h-118v553l-117 -70zM243 0l951 1434h166l-957 -1434h-160zM913 272l369 457h108v-453h125v-108h-125v-170h-116v170h-334zM1052 276h222v269z" />
<glyph unicode="&#xbd;" horiz-adv-x="1626" d="M140 1319l215 127h73v-711h-118v553l-117 -70zM245 0l951 1434h166l-957 -1434h-160zM1032 561q47 80 119 129t162 49q94 0 154.5 -56t60.5 -140q0 -51 -25.5 -97.5t-61.5 -88.5t-71 -74l-168 -172h346v-111h-475l-22 111l237 247q35 37 74 82t39 95q0 41 -26.5 65.5 t-71.5 24.5q-98 0 -185 -127z" />
<glyph unicode="&#xbe;" horiz-adv-x="1613" d="M41 770l55 92q45 -29 81 -40t73 -11q72 0 116 36t44 97q0 53 -40 87t-102 34q-57 0 -123 -29l-32 82l235 211h-274v109h409l13 -107l-197 -170h2q102 0 165.5 -58t63.5 -157q0 -106 -76.5 -175.5t-191.5 -69.5q-57 0 -117.5 19t-103.5 50zM262 0l951 1434h166l-957 -1434 h-160zM925 272l369 457h108v-453h125v-108h-125v-170h-116v170h-334zM1064 276h222v269z" />
<glyph unicode="&#xbf;" horiz-adv-x="1034" d="M57 47q0 96 49 182.5t135 152t197 102.5l26 188h121l35 -274q-201 -51 -297 -138.5t-96 -212.5q0 -109 78 -179t196 -70q92 0 176 56t150 165l113 -96q-86 -131 -204 -203t-247 -72q-121 0 -219 53.5t-155.5 143.5t-57.5 202zM411 988q0 55 32 90.5t83 35.5 q117 1 117 -126q0 -55 -32 -92.5t-85 -37.5q-115 0 -115 130z" />
<glyph unicode="&#xc0;" horiz-adv-x="1380" d="M51 0l551 1434h182l545 -1434h-176l-147 395h-639l-150 -395h-166zM426 553h520l-141 375q-25 66 -58.5 163t-60.5 179q-29 -88 -59.5 -178t-61.5 -174zM449 1708l84 145l344 -215l-49 -88z" />
<glyph unicode="&#xc1;" horiz-adv-x="1380" d="M51 0l551 1434h182l545 -1434h-176l-147 395h-639l-150 -395h-166zM426 553h520l-141 375q-25 66 -58.5 163t-60.5 179q-29 -88 -59.5 -178t-61.5 -174zM518 1638l344 215l82 -145l-379 -158z" />
<glyph unicode="&#xc2;" horiz-adv-x="1380" d="M51 0l551 1434h182l545 -1434h-176l-147 395h-639l-150 -395h-166zM373 1618l249 197h138l249 -197l-67 -62l-252 138l-250 -138zM426 553h520l-141 375q-25 66 -58.5 163t-60.5 179q-29 -88 -59.5 -178t-61.5 -174z" />
<glyph unicode="&#xc3;" horiz-adv-x="1380" d="M51 0l551 1434h182l545 -1434h-176l-147 395h-639l-150 -395h-166zM360 1585q0 98 59.5 152.5t139.5 54.5q43 0 85 -15.5t85 -33.5q27 -12 53.5 -22.5t46.5 -10.5q31 0 49.5 20.5t18.5 61.5h125q0 -88 -51 -147.5t-131 -59.5q-47 0 -92.5 15.5t-90.5 35.5 q-31 12 -56.5 22.5t-45.5 10.5q-29 0 -48.5 -21.5t-19.5 -62.5h-127zM426 553h520l-141 375q-25 66 -58.5 163t-60.5 179q-29 -88 -59.5 -178t-61.5 -174z" />
<glyph unicode="&#xc4;" horiz-adv-x="1380" d="M51 0l551 1434h182l545 -1434h-176l-147 395h-639l-150 -395h-166zM364 1688q0 47 30 79.5t89 32.5q57 0 87 -30.5t30 -81.5q0 -45 -30 -79t-87 -34q-59 0 -89 30.5t-30 82.5zM426 553h520l-141 375q-25 66 -58.5 163t-60.5 179q-29 -88 -59.5 -178t-61.5 -174zM780 1688 q0 47 30 79.5t89 32.5q57 0 87 -30.5t30 -81.5q0 -45 -30 -79t-87 -34q-59 0 -89 30.5t-30 82.5z" />
<glyph unicode="&#xc5;" horiz-adv-x="1380" d="M51 0l551 1434h182l545 -1434h-176l-147 395h-639l-150 -395h-166zM426 553h520l-141 375q-25 66 -58.5 163t-60.5 179q-29 -88 -59.5 -178t-61.5 -174zM465 1618q0 59 30.5 108.5t82 79t110.5 29.5t110.5 -29.5t83 -79t31.5 -108.5q0 -57 -31.5 -106.5t-83 -79 t-110.5 -29.5t-109.5 29.5t-82 79t-31.5 106.5zM567 1618q0 -47 36 -81t85 -34q51 0 87 34t36 81q0 53 -37 85t-86 32q-51 0 -86 -33t-35 -84z" />
<glyph unicode="&#xc6;" horiz-adv-x="1957" d="M6 0l998 1434h804v-146h-700v-481h596v-148h-596v-512h696v-147h-852v352h-530l-244 -352h-172zM522 498h430v624z" />
<glyph unicode="&#xc7;" horiz-adv-x="1386" d="M100 717q0 156 53.5 289t148.5 231t223 153.5t278 55.5q100 0 198.5 -33t181.5 -88t136 -127l-111 -117q-78 94 -186.5 148.5t-218.5 54.5q-154 0 -274.5 -73.5t-190.5 -201.5t-70 -292q0 -170 71 -300t195.5 -202t288.5 -72q113 0 218.5 46.5t168.5 121.5l82 -135 q-49 -57 -128 -101t-172 -69.5t-187 -25.5q-205 0 -364.5 94t-250 261t-90.5 382zM584 -397q55 2 109 16t90 40t36 56q0 33 -32.5 50.5t-76.5 25.5t-77 8l-27 21l135 211h105l-86 -140q197 -39 196 -172q0 -72 -55 -117.5t-138 -67t-165 -19.5z" />
<glyph unicode="&#xc8;" horiz-adv-x="1228" d="M211 0v1434h868v-158h-706v-459h592v-158h-592v-501h702v-158h-864zM424 1708l84 145l344 -215l-49 -88z" />
<glyph unicode="&#xc9;" horiz-adv-x="1228" d="M211 0v1434h868v-158h-706v-459h592v-158h-592v-501h702v-158h-864zM494 1638l344 215l82 -145l-379 -158z" />
<glyph unicode="&#xca;" horiz-adv-x="1228" d="M211 0v1434h868v-158h-706v-459h592v-158h-592v-501h702v-158h-864zM349 1618l249 197h138l249 -197l-67 -62l-252 138l-250 -138z" />
<glyph unicode="&#xcb;" horiz-adv-x="1228" d="M211 0v1434h868v-158h-706v-459h592v-158h-592v-501h702v-158h-864zM340 1688q0 47 30 79.5t89 32.5q57 0 87 -30.5t30 -81.5q0 -45 -30 -79t-87 -34q-59 0 -89 30.5t-30 82.5zM756 1688q0 47 30 79.5t89 32.5q57 0 87 -30.5t30 -81.5q0 -45 -30 -79t-87 -34 q-59 0 -89 30.5t-30 82.5z" />
<glyph unicode="&#xcc;" horiz-adv-x="911" d="M143 0v154h232v1126h-232v154h625v-154h-231v-1126h231v-154h-625zM213 1708l84 145l344 -215l-49 -88z" />
<glyph unicode="&#xcd;" horiz-adv-x="911" d="M143 0v154h232v1126h-232v154h625v-154h-231v-1126h231v-154h-625zM283 1638l344 215l82 -145l-379 -158z" />
<glyph unicode="&#xce;" horiz-adv-x="911" d="M138 1618l249 197h138l249 -197l-67 -62l-252 138l-250 -138zM143 0v154h232v1126h-232v154h625v-154h-231v-1126h231v-154h-625z" />
<glyph unicode="&#xcf;" horiz-adv-x="911" d="M131 1688q0 47 30 79.5t89 32.5q57 0 87 -30.5t30 -81.5q0 -45 -30 -79t-87 -34q-59 0 -89 30.5t-30 82.5zM143 0v154h232v1126h-232v154h625v-154h-231v-1126h231v-154h-625zM547 1688q0 47 30 79.5t89 32.5q57 0 87 -30.5t30 -81.5q0 -45 -30 -79t-87 -34 q-59 0 -89 30.5t-30 82.5z" />
<glyph unicode="&#xd0;" horiz-adv-x="1523" d="M94 647v139h117v648h543q195 0 345 -91.5t237 -253t87 -372.5t-87 -373t-237.5 -253t-344.5 -91h-543v647h-117zM373 158h370q150 0 265.5 69.5t181 195.5t65.5 294t-65.5 294t-181 195.5t-265.5 69.5h-370v-490h270v-139h-270v-489z" />
<glyph unicode="&#xd1;" horiz-adv-x="1611" d="M211 0v1434h147l899 -1190q-4 61 -8 146t-6 177t-3 181.5t-1 160.5v525h162v-1434h-150l-901 1180q8 -123 13.5 -233.5t7.5 -189.5t2 -106v-651h-162zM477 1585q0 98 59.5 152.5t139.5 54.5q43 0 85 -15.5t85 -33.5q27 -12 53.5 -22.5t46.5 -10.5q31 0 49.5 20.5 t18.5 61.5h125q0 -88 -51 -147.5t-131 -59.5q-47 0 -92.5 15.5t-90.5 35.5q-31 12 -56.5 22.5t-45.5 10.5q-29 0 -48.5 -21.5t-19.5 -62.5h-127z" />
<glyph unicode="&#xd2;" horiz-adv-x="1607" d="M100 715q0 158 52.5 292t146.5 233t223 154.5t281 55.5t280.5 -55.5t224 -154.5t147.5 -233.5t52 -291.5q0 -160 -52 -294t-147.5 -233.5t-224 -153.5t-280.5 -54t-281 54t-223 153.5t-146.5 233.5t-52.5 294zM268 715q0 -168 69 -298t189.5 -204t276.5 -74t276.5 74 t190 204t69.5 298q0 166 -69.5 296t-190.5 204.5t-276 74.5q-156 0 -276.5 -74.5t-189.5 -204.5t-69 -296zM561 1708l84 145l344 -215l-49 -88z" />
<glyph unicode="&#xd3;" horiz-adv-x="1607" d="M100 715q0 158 52.5 292t146.5 233t223 154.5t281 55.5t280.5 -55.5t224 -154.5t147.5 -233.5t52 -291.5q0 -160 -52 -294t-147.5 -233.5t-224 -153.5t-280.5 -54t-281 54t-223 153.5t-146.5 233.5t-52.5 294zM268 715q0 -168 69 -298t189.5 -204t276.5 -74t276.5 74 t190 204t69.5 298q0 166 -69.5 296t-190.5 204.5t-276 74.5q-156 0 -276.5 -74.5t-189.5 -204.5t-69 -296zM631 1638l344 215l82 -145l-379 -158z" />
<glyph unicode="&#xd4;" horiz-adv-x="1607" d="M100 715q0 158 52.5 292t146.5 233t223 154.5t281 55.5t280.5 -55.5t224 -154.5t147.5 -233.5t52 -291.5q0 -160 -52 -294t-147.5 -233.5t-224 -153.5t-280.5 -54t-281 54t-223 153.5t-146.5 233.5t-52.5 294zM268 715q0 -168 69 -298t189.5 -204t276.5 -74t276.5 74 t190 204t69.5 298q0 166 -69.5 296t-190.5 204.5t-276 74.5q-156 0 -276.5 -74.5t-189.5 -204.5t-69 -296zM486 1618l249 197h138l249 -197l-67 -62l-252 138l-250 -138z" />
<glyph unicode="&#xd5;" horiz-adv-x="1607" d="M100 715q0 158 52.5 292t146.5 233t223 154.5t281 55.5t280.5 -55.5t224 -154.5t147.5 -233.5t52 -291.5q0 -160 -52 -294t-147.5 -233.5t-224 -153.5t-280.5 -54t-281 54t-223 153.5t-146.5 233.5t-52.5 294zM268 715q0 -168 69 -298t189.5 -204t276.5 -74t276.5 74 t190 204t69.5 298q0 166 -69.5 296t-190.5 204.5t-276 74.5q-156 0 -276.5 -74.5t-189.5 -204.5t-69 -296zM473 1585q0 98 59.5 152.5t139.5 54.5q43 0 85 -15.5t85 -33.5q27 -12 53.5 -22.5t46.5 -10.5q31 0 49.5 20.5t18.5 61.5h125q0 -88 -51 -147.5t-131 -59.5 q-47 0 -92.5 15.5t-90.5 35.5q-31 12 -56.5 22.5t-45.5 10.5q-29 0 -48.5 -21.5t-19.5 -62.5h-127z" />
<glyph unicode="&#xd6;" horiz-adv-x="1607" d="M100 715q0 158 52.5 292t146.5 233t223 154.5t281 55.5t280.5 -55.5t224 -154.5t147.5 -233.5t52 -291.5q0 -160 -52 -294t-147.5 -233.5t-224 -153.5t-280.5 -54t-281 54t-223 153.5t-146.5 233.5t-52.5 294zM268 715q0 -168 69 -298t189.5 -204t276.5 -74t276.5 74 t190 204t69.5 298q0 166 -69.5 296t-190.5 204.5t-276 74.5q-156 0 -276.5 -74.5t-189.5 -204.5t-69 -296zM479 1688q0 47 30 79.5t89 32.5q57 0 87 -30.5t30 -81.5q0 -45 -30 -79t-87 -34q-59 0 -89 30.5t-30 82.5zM895 1688q0 47 30 79.5t89 32.5q57 0 87 -30.5t30 -81.5 q0 -45 -30 -79t-87 -34q-59 0 -89 30.5t-30 82.5z" />
<glyph unicode="&#xd7;" horiz-adv-x="964" d="M78 883l100 96l303 -303l305 305l97 -100l-303 -303l307 -306l-103 -96l-303 303l-305 -307l-94 102l301 301z" />
<glyph unicode="&#xd8;" horiz-adv-x="1595" d="M98 715q0 158 52.5 292t146.5 233t223 154.5t281 55.5q117 0 219 -33t186 -92l146 176l104 -80l-149 -184q94 -96 146 -230.5t52 -291.5q0 -160 -52 -294t-147.5 -233.5t-224.5 -153.5t-280 -54q-119 0 -224.5 33.5t-191.5 97.5l-141 -174l-101 86l144 176 q-88 96 -138.5 228t-50.5 288zM264 715q0 -117 34 -215.5t95 -171.5l711 870q-63 45 -140 68.5t-163 23.5q-156 0 -277 -74.5t-190.5 -204.5t-69.5 -296zM487 236q66 -47 145 -72t169 -25q156 0 276.5 74t190 204t69.5 296q0 119 -35.5 219t-99.5 176z" />
<glyph unicode="&#xd9;" horiz-adv-x="1529" d="M201 551v885h161v-867q0 -123 53.5 -218t143.5 -150.5t203 -55.5q117 0 210 55.5t147.5 150.5t54.5 218v867h155v-885q0 -164 -73.5 -291t-201.5 -199.5t-292 -72.5q-162 0 -289 72.5t-199.5 199.5t-72.5 291zM522 1708l84 145l344 -215l-49 -88z" />
<glyph unicode="&#xda;" horiz-adv-x="1529" d="M201 551v885h161v-867q0 -123 53.5 -218t143.5 -150.5t203 -55.5q117 0 210 55.5t147.5 150.5t54.5 218v867h155v-885q0 -164 -73.5 -291t-201.5 -199.5t-292 -72.5q-162 0 -289 72.5t-199.5 199.5t-72.5 291zM592 1638l344 215l82 -145l-379 -158z" />
<glyph unicode="&#xdb;" horiz-adv-x="1529" d="M201 551v885h161v-867q0 -123 53.5 -218t143.5 -150.5t203 -55.5q117 0 210 55.5t147.5 150.5t54.5 218v867h155v-885q0 -164 -73.5 -291t-201.5 -199.5t-292 -72.5q-162 0 -289 72.5t-199.5 199.5t-72.5 291zM447 1618l249 197h138l249 -197l-67 -62l-252 138l-250 -138 z" />
<glyph unicode="&#xdc;" horiz-adv-x="1529" d="M201 551v885h161v-867q0 -123 53.5 -218t143.5 -150.5t203 -55.5q117 0 210 55.5t147.5 150.5t54.5 218v867h155v-885q0 -164 -73.5 -291t-201.5 -199.5t-292 -72.5q-162 0 -289 72.5t-199.5 199.5t-72.5 291zM440 1688q0 47 30 79.5t89 32.5q57 0 87 -30.5t30 -81.5 q0 -45 -30 -79t-87 -34q-59 0 -89 30.5t-30 82.5zM856 1688q0 47 30 79.5t89 32.5q57 0 87 -30.5t30 -81.5q0 -45 -30 -79t-87 -34q-59 0 -89 30.5t-30 82.5z" />
<glyph unicode="&#xdd;" horiz-adv-x="1323" d="M37 1434h196l451 -646l416 646h186l-524 -795v-639h-160v635zM489 1638l344 215l82 -145l-379 -158z" />
<glyph unicode="&#xde;" horiz-adv-x="1253" d="M211 0v1434h162v-281h377q113 0 205 -56.5t146 -151.5t54 -212t-54 -213t-146.5 -153.5t-204.5 -57.5h-377v-309h-162zM373 471h372q72 0 127.5 36t86 95.5t30.5 130.5q0 109 -68.5 183.5t-175.5 74.5h-372v-520z" />
<glyph unicode="&#xdf;" horiz-adv-x="1329" d="M82 860v144h160v18q0 141 55 248.5t157.5 168t241.5 60.5q121 0 209 -42t137.5 -114.5t49.5 -164.5q0 -100 -67 -179t-169 -114q186 -66 283.5 -191t97.5 -288q0 -121 -51 -217.5t-143.5 -152.5t-215.5 -56q-109 0 -189.5 39.5t-135.5 109.5l90 92q53 -53 111.5 -82.5 t130.5 -29.5q113 0 182 77.5t69 202.5q0 160 -101 261.5t-320 156.5v102q276 76 276 252q0 88 -66.5 142.5t-179.5 54.5q-141 0 -221 -91t-80 -237v-1030h-151v860h-160z" />
<glyph unicode="&#xe0;" d="M72 537q0 162 67.5 287.5t182 197.5t256.5 72q129 0 230 -59.5t155 -153.5l4 190h155v-1071h-157v190q-57 -90 -164 -150t-234 -60q-139 0 -251.5 72.5t-178 198.5t-65.5 286zM233 539q0 -119 47.5 -212.5t130 -145.5t191.5 -52q106 0 190.5 52t132.5 144.5t48 213.5 q0 117 -48 209t-132 144t-191 52q-109 0 -191.5 -52t-130 -144.5t-47.5 -208.5zM399 1430l101 129l291 -246l-56 -84z" />
<glyph unicode="&#xe1;" d="M72 537q0 162 67.5 287.5t182 197.5t256.5 72q129 0 230 -59.5t155 -153.5l4 190h155v-1071h-157v190q-57 -90 -164 -150t-234 -60q-139 0 -251.5 72.5t-178 198.5t-65.5 286zM233 539q0 -119 47.5 -212.5t130 -145.5t191.5 -52q106 0 190.5 52t132.5 144.5t48 213.5 q0 117 -48 209t-132 144t-191 52q-109 0 -191.5 -52t-130 -144.5t-47.5 -208.5zM450 1313l291 246l101 -129l-336 -201z" />
<glyph unicode="&#xe2;" d="M72 537q0 162 67.5 287.5t182 197.5t256.5 72q129 0 230 -59.5t155 -153.5l4 190h155v-1071h-157v190q-57 -90 -164 -150t-234 -60q-139 0 -251.5 72.5t-178 198.5t-65.5 286zM233 539q0 -119 47.5 -212.5t130 -145.5t191.5 -52q106 0 190.5 52t132.5 144.5t48 213.5 q0 117 -48 209t-132 144t-191 52q-109 0 -191.5 -52t-130 -144.5t-47.5 -208.5zM332 1301l229 219h152l229 -219l-67 -60l-238 154l-238 -154z" />
<glyph unicode="&#xe3;" d="M72 537q0 162 67.5 287.5t182 197.5t256.5 72q129 0 230 -59.5t155 -153.5l4 190h155v-1071h-157v190q-57 -90 -164 -150t-234 -60q-139 0 -251.5 72.5t-178 198.5t-65.5 286zM233 539q0 -119 47.5 -212.5t130 -145.5t191.5 -52q106 0 190.5 52t132.5 144.5t48 213.5 q0 117 -48 209t-132 144t-191 52q-109 0 -191.5 -52t-130 -144.5t-47.5 -208.5zM318 1278q6 92 63 157.5t150 65.5q41 0 70.5 -16t70.5 -53q29 -27 48 -41.5t42 -14.5q31 0 52.5 30t27.5 79l112 -14q-6 -88 -59 -150.5t-139 -62.5q-43 0 -75 18t-73 55q-31 27 -49 39t-39 12 q-76 0 -90 -118z" />
<glyph unicode="&#xe4;" d="M72 537q0 162 67.5 287.5t182 197.5t256.5 72q129 0 230 -59.5t155 -153.5l4 190h155v-1071h-157v190q-57 -90 -164 -150t-234 -60q-139 0 -251.5 72.5t-178 198.5t-65.5 286zM233 539q0 -119 47.5 -212.5t130 -145.5t191.5 -52q106 0 190.5 52t132.5 144.5t48 213.5 q0 117 -48 209t-132 144t-191 52q-109 0 -191.5 -52t-130 -144.5t-47.5 -208.5zM318 1405q0 51 30.5 82t87.5 31q55 0 86 -30t31 -83q0 -51 -32 -82t-85 -31q-57 0 -87.5 30t-30.5 83zM719 1407q0 49 30.5 81t86.5 32q55 0 86.5 -31t31.5 -82t-31.5 -82t-86.5 -31 q-57 0 -87 30t-30 83z" />
<glyph unicode="&#xe5;" d="M72 537q0 162 67.5 287.5t182 197.5t256.5 72q129 0 230 -59.5t155 -153.5l4 190h155v-1071h-157v190q-57 -90 -164 -150t-234 -60q-139 0 -251.5 72.5t-178 198.5t-65.5 286zM233 539q0 -119 47.5 -212.5t130 -145.5t191.5 -52q106 0 190.5 52t132.5 144.5t48 213.5 q0 117 -48 209t-132 144t-191 52q-109 0 -191.5 -52t-130 -144.5t-47.5 -208.5zM418 1430q0 57 29.5 105t79 77t108.5 29t109.5 -29t81 -77t30.5 -105t-30.5 -104.5t-81 -77t-109.5 -29.5q-57 0 -107.5 29.5t-80 76.5t-29.5 105zM520 1430q0 -45 34 -78t81 -33q49 0 84 33 t35 78q0 49 -35 79.5t-84 30.5q-51 0 -83 -31.5t-32 -78.5z" />
<glyph unicode="&#xe6;" horiz-adv-x="1824" d="M72 305q0 336 483 334h231v98q0 90 -70.5 148.5t-195.5 58.5q-100 0 -180 -41t-147 -121l-105 105q184 207 436 207q141 0 238.5 -48.5t136.5 -138.5q68 88 167 137.5t220 49.5q141 -2 245.5 -67.5t164 -182.5t59.5 -266l-2 -72h-817q10 -172 119.5 -275.5t285.5 -103.5 q78 0 151 26.5t161 100.5l78 -115q-70 -70 -179.5 -114.5t-228.5 -44.5q-147 0 -262 60t-184 165q-76 -102 -194 -163.5t-247 -61.5q-104 0 -186 40.5t-130 113.5t-48 171zM225 309q0 -86 62.5 -137t156.5 -51q123 0 223.5 61.5t147.5 151.5q-27 82 -29 172h-258 q-145 0 -224 -51.5t-79 -145.5zM942 639h653v10q-2 74 -40.5 141.5t-106.5 110.5t-162 43q-139 0 -230 -78t-114 -227z" />
<glyph unicode="&#xe7;" horiz-adv-x="1079" d="M74 537q0 160 68.5 285.5t188.5 198.5t273 73q135 0 248 -55.5t180 -151.5l-90 -111q-59 76 -149.5 123t-182.5 47q-111 0 -196.5 -53t-135 -145.5t-49.5 -210.5q0 -117 50.5 -210.5t136.5 -146.5t192 -53q188 0 330 168l92 -113q-72 -92 -187.5 -147t-242.5 -55 q-152 0 -270.5 72.5t-187 198.5t-68.5 286zM400 -397q55 2 109.5 16t90 40t35.5 56q0 33 -32.5 50.5t-76.5 25.5t-77 8l-27 21l135 211h105l-88 -140q199 -39 198 -172q0 -72 -56 -117.5t-138 -67t-164 -19.5z" />
<glyph unicode="&#xe8;" horiz-adv-x="1153" d="M74 530q0 164 67.5 291t188.5 200t276 73q143 0 253 -66.5t169 -182.5t55 -267l-2 -72h-848q10 -174 119 -276.5t289 -102.5q78 0 152.5 25.5t164.5 101.5l80 -113q-72 -70 -182 -115.5t-233 -45.5q-162 0 -286 69.5t-193.5 194.5t-69.5 286zM240 637h686v12 q-4 74 -43 142.5t-110 111.5t-169 43q-147 0 -243.5 -79t-120.5 -230zM368 1430l101 129l291 -246l-56 -84z" />
<glyph unicode="&#xe9;" horiz-adv-x="1153" d="M74 530q0 164 67.5 291t188.5 200t276 73q143 0 253 -66.5t169 -182.5t55 -267l-2 -72h-848q10 -174 119 -276.5t289 -102.5q78 0 152.5 25.5t164.5 101.5l80 -113q-72 -70 -182 -115.5t-233 -45.5q-162 0 -286 69.5t-193.5 194.5t-69.5 286zM240 637h686v12 q-4 74 -43 142.5t-110 111.5t-169 43q-147 0 -243.5 -79t-120.5 -230zM419 1313l291 246l101 -129l-336 -201z" />
<glyph unicode="&#xea;" horiz-adv-x="1153" d="M74 530q0 164 67.5 291t188.5 200t276 73q143 0 253 -66.5t169 -182.5t55 -267l-2 -72h-848q10 -174 119 -276.5t289 -102.5q78 0 152.5 25.5t164.5 101.5l80 -113q-72 -70 -182 -115.5t-233 -45.5q-162 0 -286 69.5t-193.5 194.5t-69.5 286zM240 637h686v12 q-4 74 -43 142.5t-110 111.5t-169 43q-147 0 -243.5 -79t-120.5 -230zM299 1301l229 219h152l229 -219l-67 -60l-238 154l-238 -154z" />
<glyph unicode="&#xeb;" horiz-adv-x="1153" d="M74 530q0 164 67.5 291t188.5 200t276 73q143 0 253 -66.5t169 -182.5t55 -267l-2 -72h-848q10 -174 119 -276.5t289 -102.5q78 0 152.5 25.5t164.5 101.5l80 -113q-72 -70 -182 -115.5t-233 -45.5q-162 0 -286 69.5t-193.5 194.5t-69.5 286zM240 637h686v12 q-4 74 -43 142.5t-110 111.5t-169 43q-147 0 -243.5 -79t-120.5 -230zM287 1405q0 51 30.5 82t87.5 31q55 0 86 -30t31 -83q0 -51 -32 -82t-85 -31q-57 0 -87.5 30t-30.5 83zM688 1407q0 49 30.5 81t86.5 32q55 0 86.5 -31t31.5 -82t-31.5 -82t-86.5 -31q-57 0 -87 30 t-30 83z" />
<glyph unicode="&#xec;" horiz-adv-x="454" d="M-9 1430l101 129l291 -246l-56 -84zM152 0v1071h155v-1071h-155z" />
<glyph unicode="&#xed;" horiz-adv-x="454" d="M43 1313l291 246l101 -129l-336 -201zM152 0v1071h155v-1071h-155z" />
<glyph unicode="&#xee;" horiz-adv-x="454" d="M-78 1301l229 219h152l229 -219l-67 -60l-238 154l-238 -154zM152 0v1071h155v-1071h-155z" />
<glyph unicode="&#xef;" horiz-adv-x="454" d="M-90 1405q0 51 30.5 82t87.5 31q55 0 86 -30t31 -83q0 -51 -32 -82t-85 -31q-57 0 -87.5 30t-30.5 83zM152 0v1071h155v-1071h-155zM311 1407q0 49 30.5 81t86.5 32q55 0 86.5 -31t31.5 -82t-31.5 -82t-86.5 -31q-57 0 -87 30t-30 83z" />
<glyph unicode="&#xf0;" horiz-adv-x="1161" d="M74 539q0 152 67.5 274.5t182 195t254.5 72.5q92 0 170.5 -38.5t134.5 -102.5q-47 154 -162 264l-406 -98l-20 108l309 80q-106 66 -244 101l64 121q199 -49 346 -175l219 54l31 -109l-156 -39q106 -125 164.5 -299t58.5 -387q0 -170 -65.5 -300t-179 -203.5 t-260.5 -73.5q-145 0 -260 72.5t-181.5 197.5t-66.5 285zM227 539q0 -117 46 -209t126.5 -144.5t182.5 -52.5q100 0 179 52.5t126 144.5t47 209q0 113 -47 202.5t-126 142t-179 52.5q-102 0 -182.5 -52.5t-126.5 -142.5t-46 -202z" />
<glyph unicode="&#xf1;" horiz-adv-x="1181" d="M150 0v1071h153l4 -182q49 86 152.5 145.5t218.5 59.5q178 0 269 -110t91 -333v-651h-157v641q0 313 -252 307q-94 0 -167 -41t-115 -108.5t-42 -147.5v-651h-155zM334 1278q6 92 63 157.5t150 65.5q41 0 70.5 -16t70.5 -53q29 -27 48 -41.5t42 -14.5q31 0 52.5 30 t27.5 79l112 -14q-6 -88 -59 -150.5t-139 -62.5q-43 0 -75 18t-73 55q-31 27 -49 39t-39 12q-76 0 -90 -118z" />
<glyph unicode="&#xf2;" horiz-adv-x="1243" d="M74 539q0 160 71.5 285.5t195.5 197.5t282 72t281.5 -72t194 -198t70.5 -285q0 -162 -70.5 -288t-194 -198.5t-281.5 -72.5t-282 72.5t-195.5 198.5t-71.5 288zM236 539q0 -119 49 -212.5t137 -146.5t201 -53t199.5 53t136 146.5t49.5 212.5t-49.5 210t-136.5 144 t-199 53q-113 0 -201 -53t-137 -145.5t-49 -208.5zM387 1430l101 129l291 -246l-56 -84z" />
<glyph unicode="&#xf3;" horiz-adv-x="1243" d="M74 539q0 160 71.5 285.5t195.5 197.5t282 72t281.5 -72t194 -198t70.5 -285q0 -162 -70.5 -288t-194 -198.5t-281.5 -72.5t-282 72.5t-195.5 198.5t-71.5 288zM236 539q0 -119 49 -212.5t137 -146.5t201 -53t199.5 53t136 146.5t49.5 212.5t-49.5 210t-136.5 144 t-199 53q-113 0 -201 -53t-137 -145.5t-49 -208.5zM438 1313l291 246l101 -129l-336 -201z" />
<glyph unicode="&#xf4;" horiz-adv-x="1243" d="M74 539q0 160 71.5 285.5t195.5 197.5t282 72t281.5 -72t194 -198t70.5 -285q0 -162 -70.5 -288t-194 -198.5t-281.5 -72.5t-282 72.5t-195.5 198.5t-71.5 288zM236 539q0 -119 49 -212.5t137 -146.5t201 -53t199.5 53t136 146.5t49.5 212.5t-49.5 210t-136.5 144 t-199 53q-113 0 -201 -53t-137 -145.5t-49 -208.5zM318 1301l229 219h152l229 -219l-67 -60l-238 154l-238 -154z" />
<glyph unicode="&#xf5;" horiz-adv-x="1243" d="M74 539q0 160 71.5 285.5t195.5 197.5t282 72t281.5 -72t194 -198t70.5 -285q0 -162 -70.5 -288t-194 -198.5t-281.5 -72.5t-282 72.5t-195.5 198.5t-71.5 288zM236 539q0 -119 49 -212.5t137 -146.5t201 -53t199.5 53t136 146.5t49.5 212.5t-49.5 210t-136.5 144 t-199 53q-113 0 -201 -53t-137 -145.5t-49 -208.5zM306 1278q6 92 63 157.5t150 65.5q41 0 70.5 -16t70.5 -53q29 -27 48 -41.5t42 -14.5q31 0 52.5 30t27.5 79l112 -14q-6 -88 -59 -150.5t-139 -62.5q-43 0 -75 18t-73 55q-31 27 -49 39t-39 12q-76 0 -90 -118z" />
<glyph unicode="&#xf6;" horiz-adv-x="1243" d="M74 539q0 160 71.5 285.5t195.5 197.5t282 72t281.5 -72t194 -198t70.5 -285q0 -162 -70.5 -288t-194 -198.5t-281.5 -72.5t-282 72.5t-195.5 198.5t-71.5 288zM236 539q0 -119 49 -212.5t137 -146.5t201 -53t199.5 53t136 146.5t49.5 212.5t-49.5 210t-136.5 144 t-199 53q-113 0 -201 -53t-137 -145.5t-49 -208.5zM306 1405q0 51 30.5 82t87.5 31q55 0 86 -30t31 -83q0 -51 -32 -82t-85 -31q-57 0 -87.5 30t-30.5 83zM707 1407q0 49 30.5 81t86.5 32q55 0 86.5 -31t31.5 -82t-31.5 -82t-86.5 -31q-57 0 -87 30t-30 83z" />
<glyph unicode="&#xf7;" horiz-adv-x="1216" d="M106 496v141h1002v-141h-1002zM487 211q0 49 33 81t82 32t82 -32t33 -81t-33 -81t-82 -32t-82 32t-33 81zM489 901q0 49 32 82t83 33q49 0 81 -33t32 -82q0 -47 -32 -78.5t-81 -31.5q-51 0 -83 30.5t-32 79.5z" />
<glyph unicode="&#xf8;" horiz-adv-x="1243" d="M74 539q0 160 71.5 285.5t195.5 197.5t282 72q88 0 167.5 -25t143.5 -68l98 115l105 -76l-105 -122q66 -74 101.5 -170.5t35.5 -208.5q0 -162 -70.5 -288t-194.5 -198.5t-281 -72.5q-90 0 -169 23.5t-145 68.5l-112 -131l-103 73l119 140q-66 74 -102.5 172t-36.5 213z M236 539q0 -76 21.5 -143.5t59.5 -119.5l519 609q-94 61 -213 61q-113 0 -201 -53t-137 -145t-49 -209zM410 188q94 -61 213 -61q113 0 199.5 53t136 146.5t49.5 212.5q0 76 -20.5 141t-59.5 117z" />
<glyph unicode="&#xf9;" horiz-adv-x="1193" d="M147 416v655h158v-625q0 -326 268 -325q88 0 160 40t114 108.5t42 152.5v649h155v-1071h-153l-6 184q-49 -88 -147.5 -146t-209.5 -58q-184 0 -282.5 111.5t-98.5 324.5zM360 1430l101 129l291 -246l-56 -84z" />
<glyph unicode="&#xfa;" horiz-adv-x="1193" d="M147 416v655h158v-625q0 -326 268 -325q88 0 160 40t114 108.5t42 152.5v649h155v-1071h-153l-6 184q-49 -88 -147.5 -146t-209.5 -58q-184 0 -282.5 111.5t-98.5 324.5zM411 1313l291 246l101 -129l-336 -201z" />
<glyph unicode="&#xfb;" horiz-adv-x="1193" d="M147 416v655h158v-625q0 -326 268 -325q88 0 160 40t114 108.5t42 152.5v649h155v-1071h-153l-6 184q-49 -88 -147.5 -146t-209.5 -58q-184 0 -282.5 111.5t-98.5 324.5zM293 1301l229 219h152l229 -219l-67 -60l-238 154l-238 -154z" />
<glyph unicode="&#xfc;" horiz-adv-x="1193" d="M147 416v655h158v-625q0 -326 268 -325q88 0 160 40t114 108.5t42 152.5v649h155v-1071h-153l-6 184q-49 -88 -147.5 -146t-209.5 -58q-184 0 -282.5 111.5t-98.5 324.5zM279 1405q0 51 30.5 82t87.5 31q55 0 86 -30t31 -83q0 -51 -32 -82t-85 -31q-57 0 -87.5 30 t-30.5 83zM680 1407q0 49 30.5 81t86.5 32q55 0 86.5 -31t31.5 -82t-31.5 -82t-86.5 -31q-57 0 -87 30t-30 83z" />
<glyph unicode="&#xfd;" horiz-adv-x="1128" d="M14 1071h176l367 -819q8 -18 16.5 -40t16.5 -44q6 16 13 33.5t13 36.5l320 833h178l-432 -1071l-184 -471h-168l182 442zM378 1313l291 246l101 -129l-336 -201z" />
<glyph unicode="&#xfe;" horiz-adv-x="1273" d="M150 -451v1967h157v-644q49 92 155.5 156t231.5 64q143 0 258 -72t181.5 -198t66.5 -285q0 -160 -65.5 -286t-179 -197.5t-257.5 -71.5q-125 0 -231.5 59t-159.5 147v-639h-157zM297 537q0 -119 49 -211.5t133 -144.5t193 -52t192.5 53.5t131.5 145.5t48 209t-48 209 t-132 144t-192 52q-109 0 -194 -52t-133 -143.5t-48 -209.5z" />
<glyph unicode="&#xff;" horiz-adv-x="1128" d="M14 1071h176l367 -819q8 -18 16.5 -40t16.5 -44q6 16 13 33.5t13 36.5l320 833h178l-432 -1071l-184 -471h-168l182 442zM246 1405q0 51 30.5 82t87.5 31q55 0 86 -30t31 -83q0 -51 -32 -82t-85 -31q-57 0 -87.5 30t-30.5 83zM647 1407q0 49 30.5 81t86.5 32 q55 0 86.5 -31t31.5 -82t-31.5 -82t-86.5 -31q-57 0 -87 30t-30 83z" />
<glyph unicode="&#x131;" horiz-adv-x="454" d="M152 0v1071h155v-1071h-155z" />
<glyph unicode="&#x152;" horiz-adv-x="2084" d="M100 717q0 211 89.5 372.5t245 253t356.5 91.5h1146v-158h-706v-459h592v-158h-592v-501h702v-158h-1163q-195 0 -346.5 91t-237.5 253t-86 373zM268 717q0 -168 64.5 -294t180.5 -195.5t265 -69.5h291v1118h-270q-156 0 -276 -69.5t-187.5 -195.5t-67.5 -294z" />
<glyph unicode="&#x153;" horiz-adv-x="2088" d="M74 539q0 160 71.5 285.5t195.5 197.5t282 72q154 0 275.5 -70t191.5 -188q68 119 182 188.5t262 69.5q147 0 258 -66.5t171 -182.5t56 -267l-2 -72h-846q12 -174 115 -276.5t291 -102.5q76 0 150.5 25.5t164.5 101.5l80 -113q-72 -70 -182.5 -115.5t-233.5 -45.5 q-158 0 -279.5 68.5t-189.5 187.5q-70 -119 -191 -187.5t-273 -68.5q-158 0 -282 72.5t-195.5 198.5t-71.5 288zM236 539q0 -119 49 -212.5t137 -146.5t201 -53t199.5 53t136 146.5t49.5 212.5t-49.5 210t-136.5 144t-199 53q-113 0 -201 -53t-137 -145.5t-49 -208.5z M1176 637h684v4q0 78 -40 147.5t-114 113.5t-176 44q-139 0 -236.5 -80t-117.5 -229z" />
<glyph unicode="&#x178;" horiz-adv-x="1323" d="M37 1434h196l451 -646l416 646h186l-524 -795v-639h-160v635zM336 1688q0 47 30 79.5t89 32.5q57 0 87 -30.5t30 -81.5q0 -45 -30 -79t-87 -34q-59 0 -89 30.5t-30 82.5zM752 1688q0 47 30 79.5t89 32.5q57 0 87 -30.5t30 -81.5q0 -45 -30 -79t-87 -34q-59 0 -89 30.5 t-30 82.5z" />
<glyph unicode="&#x237;" horiz-adv-x="503" d="M-43 -276q123 0 179.5 62t56.5 187v1098h157v-1145q0 -147 -92.5 -237t-239.5 -90z" />
<glyph unicode="&#x2c6;" horiz-adv-x="1024" d="M207 1305l229 219h152l229 -219l-67 -60l-238 154l-238 -154z" />
<glyph unicode="&#x2dc;" horiz-adv-x="1024" d="M195 1282q6 92 63 157.5t150 65.5q41 0 70.5 -16t70.5 -53q29 -27 48 -41.5t42 -14.5q31 0 52.5 30t27.5 79l112 -14q-6 -88 -59 -150.5t-139 -62.5q-43 0 -75 18t-73 55q-31 27 -49 39t-39 12q-76 0 -90 -118z" />
<glyph unicode="&#x2000;" horiz-adv-x="926" />
<glyph unicode="&#x2001;" horiz-adv-x="1853" />
<glyph unicode="&#x2002;" horiz-adv-x="926" />
<glyph unicode="&#x2003;" horiz-adv-x="1853" />
<glyph unicode="&#x2004;" horiz-adv-x="617" />
<glyph unicode="&#x2005;" horiz-adv-x="463" />
<glyph unicode="&#x2006;" horiz-adv-x="308" />
<glyph unicode="&#x2007;" horiz-adv-x="308" />
<glyph unicode="&#x2008;" horiz-adv-x="231" />
<glyph unicode="&#x2009;" horiz-adv-x="370" />
<glyph unicode="&#x200a;" horiz-adv-x="102" />
<glyph unicode="&#x2010;" horiz-adv-x="806" d="M115 494v155h579v-155h-579z" />
<glyph unicode="&#x2011;" horiz-adv-x="806" d="M115 494v155h579v-155h-579z" />
<glyph unicode="&#x2012;" horiz-adv-x="806" d="M115 494v155h579v-155h-579z" />
<glyph unicode="&#x2013;" horiz-adv-x="1052" d="M109 516v152h835v-152h-835z" />
<glyph unicode="&#x2014;" horiz-adv-x="1777" d="M109 516v154h1560v-154h-1560z" />
<glyph unicode="&#x2018;" horiz-adv-x="491" d="M109 1229q0 102 65.5 183t181.5 132l58 -74q-68 -37 -109 -78.5t-41 -80.5q0 -27 13.5 -47.5t41.5 -42.5q59 -49 60 -95q0 -43 -29 -69.5t-76 -26.5q-74 0 -119.5 54.5t-45.5 144.5z" />
<glyph unicode="&#x2019;" horiz-adv-x="491" d="M78 1100q68 37 108.5 79t40.5 83q0 25 -14 45t-41 43q-59 49 -59 96q0 43 28.5 68.5t75.5 25.5q74 0 120 -54t46 -145q0 -100 -65.5 -182t-182.5 -133z" />
<glyph unicode="&#x201a;" horiz-adv-x="577" d="M115 -264q66 39 103.5 85t37.5 87q0 20 -8 40.5t-43 53.5q-55 49 -56 102q0 41 29 67t76 26q72 0 115 -54.5t43 -144.5q0 -109 -63.5 -196t-176.5 -140z" />
<glyph unicode="&#x201c;" horiz-adv-x="874" d="M109 1219q0 102 65.5 183t181.5 132l58 -74q-68 -37 -109 -78.5t-41 -80.5q0 -27 13.5 -47.5t41.5 -42.5q59 -49 60 -95q0 -43 -29 -69.5t-76 -26.5q-74 0 -119.5 54.5t-45.5 144.5zM492 1219q0 102 65.5 183t181.5 132l58 -74q-68 -37 -109 -78.5t-41 -80.5 q0 -27 13.5 -47.5t41.5 -42.5q59 -49 60 -95q0 -43 -29 -69.5t-76 -26.5q-74 0 -119.5 54.5t-45.5 144.5z" />
<glyph unicode="&#x201d;" horiz-adv-x="874" d="M78 1100q68 37 108.5 79t40.5 83q0 25 -14 45t-41 43q-59 49 -59 96q0 43 28.5 68.5t75.5 25.5q74 0 120 -54t46 -145q0 -100 -65.5 -182t-182.5 -133zM461 1100q68 37 108.5 79t40.5 83q0 25 -14 45t-41 43q-59 49 -59 96q0 43 28.5 68.5t75.5 25.5q74 0 120 -54 t46 -145q0 -100 -65.5 -182t-182.5 -133z" />
<glyph unicode="&#x201e;" horiz-adv-x="927" d="M97 -264q66 39 103.5 85t37.5 87q0 20 -8 40.5t-43 53.5q-55 49 -56 102q0 41 29 67t76 26q72 0 115 -54.5t43 -144.5q0 -109 -63.5 -196t-176.5 -140zM516 -264q66 39 103.5 85t37.5 87q0 20 -8 40.5t-43 53.5q-55 49 -56 102q0 41 29 67t76 26q72 0 115 -54.5 t43 -144.5q0 -109 -63.5 -196t-176.5 -140z" />
<glyph unicode="&#x2022;" horiz-adv-x="710" d="M111 715q0 68 31.5 124t88 89t123.5 33q68 0 124.5 -33t90 -89.5t33.5 -123.5q0 -68 -33.5 -123t-90 -88t-124.5 -33t-123 33t-87.5 88t-32.5 123z" />
<glyph unicode="&#x2026;" horiz-adv-x="1320" d="M119 106q0 55 31.5 92.5t82.5 37.5q117 0 117 -130q0 -55 -32 -90.5t-85 -35.5q-115 0 -114 126zM545 106q0 55 31.5 92.5t82.5 37.5q117 0 117 -130q0 -55 -32 -90.5t-85 -35.5q-115 0 -114 126zM973 106q0 55 31.5 92.5t82.5 37.5q117 0 117 -130q0 -55 -32 -90.5 t-85 -35.5q-115 0 -114 126z" />
<glyph unicode="&#x202f;" horiz-adv-x="370" />
<glyph unicode="&#x2039;" horiz-adv-x="559" d="M51 528v4l326 431l106 -72l-258 -356l258 -357l-104 -74z" />
<glyph unicode="&#x203a;" horiz-adv-x="563" d="M78 178l256 354l-256 359l104 72l326 -424v-4l-326 -429z" />
<glyph unicode="&#x2044;" horiz-adv-x="1241" d="M61 0l951 1434h166l-957 -1434h-160z" />
<glyph unicode="&#x205f;" horiz-adv-x="463" />
<glyph unicode="&#x2070;" horiz-adv-x="747" d="M61 1220q0 111 40 197t111 134t163 48t161.5 -48t108.5 -134t39 -197q0 -109 -40 -193.5t-110.5 -133.5t-158.5 -49q-90 0 -161 49t-112 134t-41 193zM190 1220q0 -119 49.5 -189.5t135.5 -70.5q84 0 133 71t49 189q0 119 -49 192t-133 73t-134.5 -73t-50.5 -192z" />
<glyph unicode="&#x2074;" horiz-adv-x="798" d="M94 1132l369 457h108v-453h125v-108h-125v-170h-116v170h-334zM233 1136h222v269z" />
<glyph unicode="&#x2075;" horiz-adv-x="733" d="M113 923l61 95q70 -61 160 -62q76 0 122 38t46 101q0 59 -42 98.5t-110 39.5q-39 0 -72.5 -9.5t-82.5 -46.5l-64 58l49 338h412v-111h-318l-22 -154q55 35 143 35q98 0 165 -67.5t67 -165.5q0 -119 -84 -190.5t-217 -71.5q-51 0 -111.5 22.5t-101.5 52.5z" />
<glyph unicode="&#x2076;" horiz-adv-x="702" d="M84 1167q0 127 37 225.5t105.5 153.5t162.5 55q61 0 110.5 -21.5t80.5 -49.5l-52 -93q-29 25 -65.5 38.5t-71.5 13.5q-70 0 -121 -61.5t-65 -178.5q68 80 168 80q102 0 167.5 -66.5t65.5 -161.5q0 -72 -34.5 -129t-92 -89.5t-127.5 -32.5q-129 0 -198.5 87t-69.5 230z M209 1093q0 -61 40 -100t101 -39q55 0 95 39t40 98q0 55 -38.5 95t-94.5 40q-61 0 -102 -38.5t-41 -94.5z" />
<glyph unicode="&#x2077;" horiz-adv-x="667" d="M115 1468v109h444l43 -78l-289 -627h-116l-2 18l264 578h-344z" />
<glyph unicode="&#x2078;" horiz-adv-x="722" d="M102 1065q0 109 119 172q-98 51 -98 155q0 86 68.5 145.5t170.5 59.5q98 0 168 -59.5t70 -145.5q0 -98 -98 -153q53 -29 84.5 -76t31.5 -98q0 -61 -34.5 -111.5t-93 -81.5t-128.5 -31q-72 0 -131 31t-94 81t-35 112zM223 1073q0 -53 41 -90t98 -37q55 0 96.5 37t41.5 90 q0 49 -41 82t-97 33q-61 0 -100 -33t-39 -82zM240 1390q0 -45 35.5 -74.5t86.5 -29.5q49 0 85 29.5t36 74.5q0 43 -35.5 73t-85.5 30q-53 0 -87.5 -29t-34.5 -74z" />
<glyph unicode="&#x2079;" horiz-adv-x="681" d="M80 1345q0 72 35 129.5t93 90t130 32.5q127 0 197.5 -87t70.5 -230q0 -213 -77 -323.5t-214 -110.5q-66 0 -115.5 22.5t-84.5 54.5l55 91q59 -55 141 -58q86 0 126 67.5t46 168.5q-68 -74 -166 -74q-104 0 -170.5 65.5t-66.5 161.5zM201 1356q0 -55 39 -95.5t98 -40.5 q61 0 102 39t41 94q0 59 -41 99.5t-100 40.5q-57 0 -98 -39t-41 -98z" />
<glyph unicode="&#x2080;" horiz-adv-x="745" d="M61 -33q0 111 40 197t111 134t163 48t161.5 -48t108.5 -134t39 -197q0 -109 -40 -193.5t-110.5 -133.5t-158.5 -49q-90 0 -161 49t-112 134t-41 193zM190 -33q0 -119 49.5 -189.5t135.5 -70.5q84 0 133 71t49 189q0 119 -49 192t-133 73t-134.5 -73t-50.5 -192z" />
<glyph unicode="&#x2081;" horiz-adv-x="575" d="M111 172l215 127h73v-711h-118v553l-117 -70z" />
<glyph unicode="&#x2082;" horiz-adv-x="708" d="M96 151q47 80 119 129t162 49q94 0 154.5 -56t60.5 -140q0 -51 -25.5 -97.5t-61.5 -88.5t-71 -74l-168 -172h346v-111h-475l-22 111l237 247q35 37 74 82t39 95q0 41 -26.5 65.5t-71.5 24.5q-98 0 -185 -127z" />
<glyph unicode="&#x2083;" horiz-adv-x="700" d="M123 -340l55 92q45 -29 81 -40t73 -11q72 0 116 36t44 97q0 53 -40 87t-102 34q-57 0 -123 -29l-32 82l235 211h-274v109h409l13 -107l-197 -170h2q102 0 165.5 -58t63.5 -157q0 -106 -76.5 -175.5t-191.5 -69.5q-57 0 -117.5 19t-103.5 50z" />
<glyph unicode="&#x2084;" horiz-adv-x="798" d="M94 -138l369 457h108v-453h125v-108h-125v-170h-116v170h-334zM233 -134h222v269z" />
<glyph unicode="&#x2085;" horiz-adv-x="733" d="M113 -353l61 95q70 -61 160 -62q76 0 122 38t46 101q0 59 -42 98.5t-110 39.5q-39 0 -72.5 -9.5t-82.5 -46.5l-64 58l49 338h412v-111h-318l-22 -154q55 35 143 35q98 0 165 -67.5t67 -165.5q0 -119 -84 -190.5t-217 -71.5q-51 0 -111.5 22.5t-101.5 52.5z" />
<glyph unicode="&#x2086;" horiz-adv-x="702" d="M84 -90q0 127 37 225.5t105.5 153.5t162.5 55q61 0 110.5 -21.5t80.5 -49.5l-52 -93q-29 25 -65.5 38.5t-71.5 13.5q-70 0 -121 -61.5t-65 -178.5q68 80 168 80q102 0 167.5 -66.5t65.5 -161.5q0 -72 -34.5 -129t-92 -89.5t-127.5 -32.5q-129 0 -198.5 87t-69.5 230z M209 -164q0 -61 40 -100t101 -39q55 0 95 39t40 98q0 55 -38.5 95t-94.5 40q-61 0 -102 -38.5t-41 -94.5z" />
<glyph unicode="&#x2087;" horiz-adv-x="667" d="M115 186v109h444l43 -78l-289 -627h-116l-2 18l264 578h-344z" />
<glyph unicode="&#x2088;" horiz-adv-x="722" d="M102 -188q0 109 119 172q-98 51 -98 155q0 86 68.5 145.5t170.5 59.5q98 0 168 -59.5t70 -145.5q0 -98 -98 -153q53 -29 84.5 -76t31.5 -98q0 -61 -34.5 -111.5t-93 -81.5t-128.5 -31q-72 0 -131 31t-94 81t-35 112zM223 -180q0 -53 41 -90t98 -37q55 0 96.5 37t41.5 90 q0 49 -41 82t-97 33q-61 0 -100 -33t-39 -82zM240 137q0 -45 35.5 -74.5t86.5 -29.5q49 0 85 29.5t36 74.5q0 43 -35.5 73t-85.5 30q-53 0 -87.5 -29t-34.5 -74z" />
<glyph unicode="&#x2089;" horiz-adv-x="681" d="M80 92q0 72 35 129.5t93 90t130 32.5q127 0 197.5 -87t70.5 -230q0 -213 -77 -323.5t-214 -110.5q-66 0 -115.5 22.5t-84.5 54.5l55 91q59 -55 141 -58q86 0 126 67.5t46 168.5q-68 -74 -166 -74q-104 0 -170.5 65.5t-66.5 161.5zM201 103q0 -55 39 -95.5t98 -40.5 q61 0 102 39t41 94q0 59 -41 99.5t-100 40.5q-57 0 -98 -39t-41 -98z" />
<glyph unicode="&#x20ac;" horiz-adv-x="1323" d="M31 477v146h162q-4 45 -5 92q0 31 2 59l-159 2v144h182q39 156 133 274.5t230.5 185t302.5 66.5q184 0 329 -96l-75 -129q-57 35 -122 55t-132 20q-184 0 -319.5 -103t-188.5 -273h483v-146h-510q-2 -29 -2 -59q0 -49 4 -92l508 -2v-144h-473q57 -160 188 -254t310 -94 q70 0 136 21.5t122 58.5l77 -129q-78 -49 -165.5 -74.5t-176.5 -25.5q-160 0 -293 61t-226 173t-134 263h-188z" />
<glyph unicode="&#x2116;" horiz-adv-x="2410" d="M211 0v1434h147l899 -1190q-4 61 -8 146t-6 177t-3 181.5t-1 160.5v525h162v-1434h-150l-901 1180q8 -123 13.5 -233.5t7.5 -189.5t2 -106v-651h-162zM1614 1087q0 104 46 186.5t125 129.5t179 47t181 -48t128 -130t47 -185q0 -100 -46 -181t-127 -127t-183 -46 q-100 0 -180 46t-125 126t-45 182zM1630 416v139h709v-139h-709zM1757 1087q0 -100 57.5 -162.5t149.5 -62.5q94 0 152.5 62.5t58.5 162.5q0 104 -58.5 169t-152.5 65q-92 0 -149.5 -64.5t-57.5 -169.5z" />
<glyph unicode="&#x2122;" horiz-adv-x="1570" d="M72 1313v121h561v-121h-221v-617h-125v617h-215zM739 696v738h103l260 -433l262 433h109v-738h-134v480l-186 -312h-104l-181 301v-469h-129z" />
<glyph unicode="&#x25fc;" horiz-adv-x="1075" d="M0 0v1075h1075v-1075h-1075z" />
<glyph unicode="&#xfb03;" horiz-adv-x="2039" d="M82 918v143h190v174q0 119 78 196.5t207 77.5q66 0 119 -23.5t88 -64.5l-55 -121q-33 33 -70 48.5t-72 15.5q-137 0 -137 -131v-172h272v-143h-272v-918h-158v918h-190zM858 918v143h190v174q0 119 78 196.5t207 77.5q66 0 119 -23.5t88 -64.5l-55 -121q-33 33 -70 48.5 t-72 15.5q-137 0 -137 -131v-172h272v-143h-272v-918h-158v918h-190zM1679 1413q0 51 30.5 82t88.5 31q55 0 86 -30t31 -83q0 -51 -31 -82t-86 -31q-57 0 -88 30t-31 83zM1720 0v1071h158v-1071h-158z" />
<glyph unicode="&#xfb04;" horiz-adv-x="2013" d="M82 918v143h190v174q0 119 78 196.5t207 77.5q66 0 119 -23.5t88 -64.5l-55 -121q-33 33 -70 48.5t-72 15.5q-137 0 -137 -131v-172h272v-143h-272v-918h-158v918h-190zM858 918v143h190v174q0 119 78 196.5t207 77.5q66 0 119 -23.5t88 -64.5l-55 -121q-33 33 -70 48.5 t-72 15.5q-137 0 -137 -131v-172h272v-143h-272v-918h-158v918h-190zM1704 0v1516h155v-1516h-155z" />
<glyph horiz-adv-x="1296" d="M121 240l106 112q78 -123 152 -168t160 -45q127 0 205.5 87t78.5 225v829h-262v154h639v-154h-211v-844q0 -131 -58.5 -234.5t-159.5 -162.5t-232 -59q-137 0 -246 69.5t-172 190.5zM715 1638l344 215l82 -145l-379 -158z" />
<glyph horiz-adv-x="630" d="M236 0v1434h161v-1434h-161z" />
<glyph horiz-adv-x="630" d="M143 1638l344 215l82 -145l-379 -158zM236 0v1434h161v-1434h-161z" />
<glyph horiz-adv-x="630" d="M-2 1618l249 197h138l249 -197l-67 -62l-252 138l-250 -138zM236 0v1434h161v-1434h-161z" />
<glyph horiz-adv-x="630" d="M-11 1688q0 47 30 79.5t89 32.5q57 0 87 -30.5t30 -81.5q0 -45 -30 -79t-87 -34q-59 0 -89 30.5t-30 82.5zM236 0v1434h161v-1434h-161zM405 1688q0 47 30 79.5t89 32.5q57 0 87 -30.5t30 -81.5q0 -45 -30 -79t-87 -34q-59 0 -89 30.5t-30 82.5z" />
<glyph horiz-adv-x="630" d="M74 1708l84 145l344 -215l-49 -88zM236 0v1434h161v-1434h-161z" />
<glyph horiz-adv-x="1200" d="M121 240l106 112q78 -123 152 -168t160 -45q127 0 205.5 87t78.5 225v983h166v-998q0 -131 -58.5 -234.5t-159.5 -162.5t-232 -59q-137 0 -246 69.5t-172 190.5z" />
<glyph horiz-adv-x="454" d="M110 1415q0 49 31 81t86 32t87 -31t32 -82t-32 -81.5t-87 -30.5q-57 0 -87 29.5t-30 82.5zM152 0v1071h155v-1071h-155z" />
<glyph horiz-adv-x="503" d="M-43 -276q123 0 179.5 62t56.5 187v1098h157v-1145q0 -147 -92.5 -237t-239.5 -90zM88 1313l291 246l101 -129l-336 -201z" />
<glyph horiz-adv-x="1097" d="M88 305q0 348 483 348h248v70q0 98 -68.5 159.5t-197.5 61.5q-100 0 -180 -41t-148 -121l-104 105q190 207 442 207q184 0 293 -91.5t109 -257.5v-745h-146v150q-74 -78 -169 -124t-197 -46q-104 0 -186.5 40.5t-130.5 113.5t-48 171zM242 309q0 -86 62.5 -137t156.5 -51 q111 0 206 51t152 135v213h-274q-145 0 -224 -55t-79 -156z" />
<glyph horiz-adv-x="1097" d="M88 305q0 348 483 348h248v70q0 98 -68.5 159.5t-197.5 61.5q-100 0 -180 -41t-148 -121l-104 105q190 207 442 207q184 0 293 -91.5t109 -257.5v-745h-146v150q-74 -78 -169 -124t-197 -46q-104 0 -186.5 40.5t-130.5 113.5t-48 171zM242 309q0 -86 62.5 -137t156.5 -51 q111 0 206 51t152 135v213h-274q-145 0 -224 -55t-79 -156zM364 1313l291 246l101 -129l-336 -201z" />
<glyph horiz-adv-x="1097" d="M88 305q0 348 483 348h248v70q0 98 -68.5 159.5t-197.5 61.5q-100 0 -180 -41t-148 -121l-104 105q190 207 442 207q184 0 293 -91.5t109 -257.5v-745h-146v150q-74 -78 -169 -124t-197 -46q-104 0 -186.5 40.5t-130.5 113.5t-48 171zM242 309q0 -86 62.5 -137t156.5 -51 q111 0 206 51t152 135v213h-274q-145 0 -224 -55t-79 -156zM244 1301l229 219h152l229 -219l-67 -60l-238 154l-238 -154z" />
<glyph horiz-adv-x="1097" d="M88 305q0 348 483 348h248v70q0 98 -68.5 159.5t-197.5 61.5q-100 0 -180 -41t-148 -121l-104 105q190 207 442 207q184 0 293 -91.5t109 -257.5v-745h-146v150q-74 -78 -169 -124t-197 -46q-104 0 -186.5 40.5t-130.5 113.5t-48 171zM232 1405q0 51 30.5 82t87.5 31 q55 0 86 -30t31 -83q0 -51 -32 -82t-85 -31q-57 0 -87.5 30t-30.5 83zM242 309q0 -86 62.5 -137t156.5 -51q111 0 206 51t152 135v213h-274q-145 0 -224 -55t-79 -156zM633 1407q0 49 30.5 81t86.5 32q55 0 86.5 -31t31.5 -82t-31.5 -82t-86.5 -31q-57 0 -87 30t-30 83z" />
<glyph horiz-adv-x="1097" d="M88 305q0 348 483 348h248v70q0 98 -68.5 159.5t-197.5 61.5q-100 0 -180 -41t-148 -121l-104 105q190 207 442 207q184 0 293 -91.5t109 -257.5v-745h-146v150q-74 -78 -169 -124t-197 -46q-104 0 -186.5 40.5t-130.5 113.5t-48 171zM242 309q0 -86 62.5 -137t156.5 -51 q111 0 206 51t152 135v213h-274q-145 0 -224 -55t-79 -156zM313 1430l101 129l291 -246l-56 -84z" />
<glyph horiz-adv-x="1097" d="M88 305q0 348 483 348h248v70q0 98 -68.5 159.5t-197.5 61.5q-100 0 -180 -41t-148 -121l-104 105q190 207 442 207q184 0 293 -91.5t109 -257.5v-745h-146v150q-74 -78 -169 -124t-197 -46q-104 0 -186.5 40.5t-130.5 113.5t-48 171zM242 309q0 -86 62.5 -137t156.5 -51 q111 0 206 51t152 135v213h-274q-145 0 -224 -55t-79 -156zM330 1430q0 57 29.5 105t79 77t108.5 29t109.5 -29t81 -77t30.5 -105t-30.5 -104.5t-81 -77t-109.5 -29.5q-57 0 -107.5 29.5t-80 76.5t-29.5 105zM432 1430q0 -45 34 -78t81 -33q49 0 84 33t35 78q0 49 -35 79.5 t-84 30.5q-51 0 -83 -31.5t-32 -78.5z" />
<glyph horiz-adv-x="1097" d="M88 305q0 348 483 348h248v70q0 98 -68.5 159.5t-197.5 61.5q-100 0 -180 -41t-148 -121l-104 105q190 207 442 207q184 0 293 -91.5t109 -257.5v-745h-146v150q-74 -78 -169 -124t-197 -46q-104 0 -186.5 40.5t-130.5 113.5t-48 171zM232 1278q6 92 63 157.5t150 65.5 q41 0 70.5 -16t70.5 -53q29 -27 48 -41.5t42 -14.5q31 0 52.5 30t27.5 79l112 -14q-6 -88 -59 -150.5t-139 -62.5q-43 0 -75 18t-73 55q-31 27 -49 39t-39 12q-76 0 -90 -118zM242 309q0 -86 62.5 -137t156.5 -51q111 0 206 51t152 135v213h-274q-145 0 -224 -55t-79 -156z " />
<glyph horiz-adv-x="1144" d="M92 -154q0 76 40 138.5t126 103.5q-133 53 -133 174q0 53 36 101.5t128 72.5q-88 70 -119 141.5t-31 145.5q0 100 55.5 183t148.5 132t206 49q35 0 68.5 -6t66.5 -14h369v-135h-172q41 -57 59 -104.5t18 -104.5q0 -102 -55 -187t-148 -135.5t-206 -50.5h-139 q-57 0 -88 -24.5t-31 -61.5q0 -43 29.5 -66.5t97.5 -23.5h153q223 0 351.5 -89t128.5 -239q0 -94 -58.5 -168.5t-165 -116.5t-256.5 -42q-236 0 -357.5 93t-121.5 234zM252 -154q0 -80 87 -132t230 -52q147 0 234.5 52.5t87.5 131.5q0 84 -87 134.5t-235 50.5 q-143 0 -230 -50.5t-87 -134.5zM299 723q0 -100 69.5 -164.5t180.5 -64.5q104 0 177 63.5t73 165.5q0 92 -73 156.5t-177 64.5q-109 0 -179.5 -64.5t-70.5 -156.5z" />
<glyph horiz-adv-x="1253" d="M98 717q0 348 139.5 542.5t389.5 194.5q248 0 388 -194.5t140 -542.5q0 -346 -140 -541.5t-388 -195.5q-250 0 -389.5 195.5t-139.5 541.5zM260 717q0 -281 95.5 -433.5t271.5 -152.5q174 0 270 152.5t96 433.5t-96 433.5t-270 152.5q-176 0 -271.5 -153t-95.5 -433z M518 720q0 55 31.5 92.5t82.5 37.5q117 0 117 -130q0 -55 -32 -90.5t-85 -35.5q-115 0 -114 126z" />
<glyph horiz-adv-x="745" d="M61 356q0 111 40 197t111 134t163 48t161.5 -48t108.5 -134t39 -197q0 -109 -40 -193.5t-110.5 -133.5t-158.5 -49q-90 0 -161 49t-112 134t-41 193zM190 356q0 -119 49.5 -189.5t135.5 -70.5q84 0 133 71t49 189q0 119 -49 192t-133 73t-134.5 -73t-50.5 -192z" />
<glyph horiz-adv-x="573" d="M111 582l215 127h73v-711h-118v553l-117 -70z" />
<glyph horiz-adv-x="708" d="M96 561q47 80 119 129t162 49q94 0 154.5 -56t60.5 -140q0 -51 -25.5 -97.5t-61.5 -88.5t-71 -74l-168 -172h346v-111h-475l-22 111l237 247q35 37 74 82t39 95q0 41 -26.5 65.5t-71.5 24.5q-98 0 -185 -127z" />
<glyph horiz-adv-x="700" d="M123 49l55 92q45 -29 81 -40t73 -11q72 0 116 36t44 97q0 53 -40 87t-102 34q-57 0 -123 -29l-32 82l235 211h-274v109h409l13 -107l-197 -170h2q102 0 165.5 -58t63.5 -157q0 -106 -76.5 -175.5t-191.5 -69.5q-57 0 -117.5 19t-103.5 50z" />
<glyph horiz-adv-x="798" d="M94 272l369 457h108v-453h125v-108h-125v-170h-116v170h-334zM233 276h222v269z" />
<glyph horiz-adv-x="731" d="M113 57l61 95q70 -61 160 -62q76 0 122 38t46 101q0 59 -42 98.5t-110 39.5q-39 0 -72.5 -9.5t-82.5 -46.5l-64 58l49 338h412v-111h-318l-22 -154q55 35 143 35q98 0 165 -67.5t67 -165.5q0 -119 -84 -190.5t-217 -71.5q-51 0 -111.5 22.5t-101.5 52.5z" />
<glyph horiz-adv-x="702" d="M84 299q0 127 37 225.5t105.5 153.5t162.5 55q61 0 110.5 -21.5t80.5 -49.5l-52 -93q-29 25 -65.5 38.5t-71.5 13.5q-70 0 -121 -61.5t-65 -178.5q68 80 168 80q102 0 167.5 -66.5t65.5 -161.5q0 -72 -34.5 -129t-92 -89.5t-127.5 -32.5q-129 0 -198.5 87t-69.5 230z M209 225q0 -61 40 -100t101 -39q55 0 95 39t40 98q0 55 -38.5 95t-94.5 40q-61 0 -102 -38.5t-41 -94.5z" />
<glyph horiz-adv-x="667" d="M115 596v109h444l43 -78l-289 -627h-116l-2 18l264 578h-344z" />
<glyph horiz-adv-x="722" d="M102 201q0 109 119 172q-98 51 -98 155q0 86 68.5 145.5t170.5 59.5q98 0 168 -59.5t70 -145.5q0 -98 -98 -153q53 -29 84.5 -76t31.5 -98q0 -61 -34.5 -111.5t-93 -81.5t-128.5 -31q-72 0 -131 31t-94 81t-35 112zM223 209q0 -53 41 -90t98 -37q55 0 96.5 37t41.5 90 q0 49 -41 82t-97 33q-61 0 -100 -33t-39 -82zM240 526q0 -45 35.5 -74.5t86.5 -29.5q49 0 85 29.5t36 74.5q0 43 -35.5 73t-85.5 30q-53 0 -87.5 -29t-34.5 -74z" />
<glyph horiz-adv-x="681" d="M80 481q0 72 35 129.5t93 90t130 32.5q127 0 197.5 -87t70.5 -230q0 -213 -77 -323.5t-214 -110.5q-66 0 -115.5 22.5t-84.5 54.5l55 91q59 -55 141 -58q86 0 126 67.5t46 168.5q-68 -74 -166 -74q-104 0 -170.5 65.5t-66.5 161.5zM201 492q0 -55 39 -95.5t98 -40.5 q61 0 102 39t41 94q0 59 -41 99.5t-100 40.5q-57 0 -98 -39t-41 -98z" />
<glyph horiz-adv-x="745" d="M61 1077q0 111 40 197t111 134t163 48t161.5 -48t108.5 -134t39 -197q0 -109 -40 -193.5t-110.5 -133.5t-158.5 -49q-90 0 -161 49t-112 134t-41 193zM190 1077q0 -119 49.5 -189.5t135.5 -70.5q84 0 133 71t49 189q0 119 -49 192t-133 73t-134.5 -73t-50.5 -192z" />
<glyph horiz-adv-x="575" d="M111 1321l215 127h73v-711h-118v553l-117 -70z" />
<glyph horiz-adv-x="708" d="M96 1274q47 80 119 129t162 49q94 0 154.5 -56t60.5 -140q0 -51 -25.5 -97.5t-61.5 -88.5t-71 -74l-168 -172h346v-111h-475l-22 111l237 247q35 37 74 82t39 95q0 41 -26.5 65.5t-71.5 24.5q-98 0 -185 -127z" />
<glyph horiz-adv-x="700" d="M123 770l55 92q45 -29 81 -40t73 -11q72 0 116 36t44 97q0 53 -40 87t-102 34q-57 0 -123 -29l-32 82l235 211h-274v109h409l13 -107l-197 -170h2q102 0 165.5 -58t63.5 -157q0 -106 -76.5 -175.5t-191.5 -69.5q-57 0 -117.5 19t-103.5 50z" />
<glyph horiz-adv-x="798" d="M94 989l369 457h108v-453h125v-108h-125v-170h-116v170h-334zM233 993h222v269z" />
<glyph horiz-adv-x="733" d="M113 780l61 95q70 -61 160 -62q76 0 122 38t46 101q0 59 -42 98.5t-110 39.5q-39 0 -72.5 -9.5t-82.5 -46.5l-64 58l49 338h412v-111h-318l-22 -154q55 35 143 35q98 0 165 -67.5t67 -165.5q0 -119 -84 -190.5t-217 -71.5q-51 0 -111.5 22.5t-101.5 52.5z" />
<glyph horiz-adv-x="702" d="M84 1024q0 127 37 225.5t105.5 153.5t162.5 55q61 0 110.5 -21.5t80.5 -49.5l-52 -93q-29 25 -65.5 38.5t-71.5 13.5q-70 0 -121 -61.5t-65 -178.5q68 80 168 80q102 0 167.5 -66.5t65.5 -161.5q0 -72 -34.5 -129t-92 -89.5t-127.5 -32.5q-129 0 -198.5 87t-69.5 230z M209 950q0 -61 40 -100t101 -39q55 0 95 39t40 98q0 55 -38.5 95t-94.5 40q-61 0 -102 -38.5t-41 -94.5z" />
<glyph horiz-adv-x="667" d="M115 1325v109h444l43 -78l-289 -627h-116l-2 18l264 578h-344z" />
<glyph horiz-adv-x="722" d="M102 922q0 109 119 172q-98 51 -98 155q0 86 68.5 145.5t170.5 59.5q98 0 168 -59.5t70 -145.5q0 -98 -98 -153q53 -29 84.5 -76t31.5 -98q0 -61 -34.5 -111.5t-93 -81.5t-128.5 -31q-72 0 -131 31t-94 81t-35 112zM223 930q0 -53 41 -90t98 -37q55 0 96.5 37t41.5 90 q0 49 -41 82t-97 33q-61 0 -100 -33t-39 -82zM240 1247q0 -45 35.5 -74.5t86.5 -29.5q49 0 85 29.5t36 74.5q0 43 -35.5 73t-85.5 30q-53 0 -87.5 -29t-34.5 -74z" />
<glyph horiz-adv-x="681" d="M80 1202q0 72 35 129.5t93 90t130 32.5q127 0 197.5 -87t70.5 -230q0 -213 -77 -323.5t-214 -110.5q-66 0 -115.5 22.5t-84.5 54.5l55 91q59 -55 141 -58q86 0 126 67.5t46 168.5q-68 -74 -166 -74q-104 0 -170.5 65.5t-66.5 161.5zM201 1213q0 -55 39 -95.5t98 -40.5 q61 0 102 39t41 94q0 59 -41 99.5t-100 40.5q-57 0 -98 -39t-41 -98z" />
<glyph horiz-adv-x="466" d="M119 741q0 55 31.5 92.5t82.5 37.5q117 0 117 -130q0 -55 -32 -90.5t-85 -35.5q-115 0 -114 126z" />
<glyph horiz-adv-x="743" d="M127 721q0 68 31.5 124t88 89t123.5 33q68 0 124.5 -33t90 -89.5t33.5 -123.5q0 -68 -33.5 -123t-90 -88t-124.5 -33t-123 33t-87.5 88t-32.5 123z" />
<glyph horiz-adv-x="466" d="M119 782q0 55 31.5 92.5t82.5 37.5q117 0 117 -130q0 -55 -32 -90.5t-85 -35.5q-115 0 -114 126z" />
<glyph horiz-adv-x="1114" d="M76 -244l831 1678h156l-830 -1678h-157z" />
<glyph horiz-adv-x="1114" d="M90 1434h156l819 -1653h-160z" />
<glyph horiz-adv-x="466" d="M119 681q0 55 31.5 92.5t82.5 37.5q117 0 117 -130q0 -55 -32 -90.5t-85 -35.5q-115 0 -114 126z" />
<glyph horiz-adv-x="731" d="M61 630q0 285 132.5 519.5t381.5 390.5l87 -97q-221 -154 -335 -361.5t-114 -451.5q0 -242 113.5 -449.5t335.5 -361.5l-89 -98q-250 156 -381 389.5t-131 519.5z" />
<glyph horiz-adv-x="731" d="M84 -181q221 154 336 362t115 449q0 244 -115 452t-336 361l88 97q250 -156 381 -389.5t131 -520.5q0 -285 -132 -519t-382 -390z" />
<glyph horiz-adv-x="835" d="M96 555v120h82q104 0 158.5 71t54.5 200l-2 194q0 164 89 255t274 132l28 -108q-94 -33 -148 -69t-77 -91t-23 -147l5 -195q0 -119 -50.5 -196.5t-144.5 -106.5q195 -72 195 -303l-5 -195q0 -90 23 -146t77 -92t148 -67l-28 -110q-184 41 -273.5 130t-89.5 257l2 194 q0 127 -56 199t-161 74h-78z" />
<glyph horiz-adv-x="835" d="M55 -189q94 31 148.5 67t77 91t22.5 147l-4 195q0 119 50 196.5t145 106.5q-195 74 -195 303l4 195q0 90 -22.5 146t-75.5 92t-150 69l29 108q184 -39 273 -129t89 -258l-2 -194q0 -127 56.5 -199t161.5 -72h77v-120h-82q-104 -2 -158.5 -73t-54.5 -200l2 -194 q0 -164 -89 -255t-273 -132z" />
<glyph horiz-adv-x="768" d="M174 -307v1823h496v-129h-351v-1565h351v-129h-496z" />
<glyph horiz-adv-x="768" d="M98 -178h353v1565h-353v129h496v-1823h-496v129z" />
<glyph horiz-adv-x="806" d="M115 582v155h579v-155h-579z" />
<glyph horiz-adv-x="1058" d="M109 604v152h835v-152h-835z" />
<glyph horiz-adv-x="1783" d="M109 610v154h1560v-154h-1560z" />
<glyph horiz-adv-x="985" d="M47 680v4l326 431l106 -72l-258 -356l258 -357l-104 -74zM463 680v4l326 431l106 -72l-258 -356l258 -357l-104 -74z" />
<glyph horiz-adv-x="1011" d="M92 330l256 354l-256 359l104 72l326 -424v-4l-326 -429zM535 330l256 354l-256 359l104 72l326 -424v-4l-326 -429z" />
<glyph horiz-adv-x="559" d="M51 694v4l326 431l106 -72l-258 -356l258 -357l-104 -74z" />
<glyph horiz-adv-x="563" d="M78 344l256 354l-256 359l104 72l326 -424v-4l-326 -429z" />
<glyph horiz-adv-x="1990" d="M92 633q0 229 82 417.5t227.5 325t340 210t417.5 73.5q221 0 388 -83t259 -229.5t92 -338.5q0 -145 -39.5 -271t-110.5 -220.5t-163 -146.5t-194 -52q-96 0 -149.5 51t-53.5 137v6q-59 -94 -147.5 -144t-190.5 -50q-92 0 -164 46t-113 129t-41 193q0 102 35 202.5 t98.5 182.5t151.5 130t195 48q88 0 157.5 -46t108.5 -136l25 164h153l-113 -643q-12 -72 13.5 -107.5t77.5 -35.5q86 0 161.5 72.5t122.5 198.5t47 284q0 164 -75.5 283.5t-213 185t-321.5 65.5q-209 0 -379 -67.5t-293 -187.5t-189.5 -282.5t-66.5 -353.5q0 -197 77 -341 t218.5 -223t337.5 -79q139 0 243.5 36t211.5 95l61 -108q-147 -82 -273 -116t-247 -34q-233 0 -405 95.5t-265.5 266.5t-93.5 398zM688 680q0 -104 52.5 -166.5t142.5 -62.5q82 0 154.5 46t123.5 124t68 172q6 31 9 53.5t3 44.5q0 102 -60.5 163.5t-160.5 61.5 q-86 0 -162 -59t-123 -158.5t-47 -218.5z" />
</font>
</defs>
</svg>
